<?xml version="1.0" encoding="UTF-8"?>
<svg width="882px" height="548px" viewBox="0 0 882 548" version="1.1" xmlns="http://www.w3.org/2000/svg" xmlns:xlink="http://www.w3.org/1999/xlink">
    <!-- Generator: Sketch 42 (36781) - http://www.bohemiancoding.com/sketch -->
    <title>Dallas Skyline</title>
    <desc>Created with Sketch.</desc>
    <defs></defs>
    <g id="Symbols" stroke="none" stroke-width="1" fill="none" fill-rule="evenodd" opacity="0.200000003">
        <g id="Dallas-Skyline" fill="#FFFFFF">
            <path d="M450.452029,360.291637 L514.356244,360.291637 L514.356244,400.512175 L576.388716,400.512175 L576.388716,441.202293 L639,441.202293 L639,548 L109,548 L109,421.464871 L167.522016,421.464871 L167.522016,400.512175 L232.858226,400.512175 L232.858226,342.526455 L294.052548,342.526455 L294.052548,306.351827 L359.473325,306.351827 L359.473325,283.894593 L377.207896,283.894593 L377.207896,276 L450.452029,276 L450.452029,360.291637 Z M385.623219,284.411132 L385.623219,292.305725 L367.888649,292.305725 L367.888649,314.762958 L302.467872,314.762958 L302.467872,350.937587 L241.273549,350.937587 L241.273549,408.923306 L175.937339,408.923306 L175.937339,429.876003 L117.415323,429.876003 L117.415323,539.588868 L630.584677,539.588868 L630.584677,449.613424 L567.973393,449.613424 L567.973393,408.923306 L505.94092,408.923306 L505.94092,368.702769 L442.036706,368.702769 L442.036706,284.411132 L385.623219,284.411132 Z" id="Shape"></path>
            <path d="M846,365 L810,365 L810,220 L846,220 L846,365 Z M818.265381,228.238406 L818.265381,356.761594 L837.734619,356.761594 L837.734619,228.238406 L818.265381,228.238406 Z" id="Shape"></path>
            <path d="M838.413462,221.233677 L838.646547,221.233677 C838.572496,221.029494 838.494801,220.827138 838.413462,220.624811 L838.413462,211 L881,211 L881,368 L778,368 L778,211 L818.605769,211 L818.605769,229.879747 L838.413462,229.879747 L838.413462,221.233677 Z M845.636449,222.499213 C845.764359,223.338503 845.833958,224.183451 845.858411,225.032171 L845.890389,229.679384 L811.132604,229.679384 C811.142009,228.129056 811.134485,226.580613 811.16082,225.032171 C811.166463,224.819048 811.175868,224.605925 811.185273,224.392802 C811.224775,223.759091 811.286849,223.127266 811.382782,222.497327 C811.520098,221.59014 811.719488,220.698041 811.965904,219.815372 L786.423288,219.445707 L786.423288,359.554293 L872.576712,359.554293 L872.576712,219.445707 L844.944227,219.445707 C845.299743,220.698041 845.501014,221.592026 845.636449,222.499213 Z" id="Combined-Shape"></path>
            <path d="M828.250666,202.001413 C829.238583,202.027789 830.219128,202.140828 831.183084,202.363138 C831.809748,202.506321 832.427196,202.690951 833.031743,202.915145 C836.837805,204.324366 839.998771,207.204977 842.223428,210.618757 C842.606799,211.20656 842.962523,211.811319 843.292443,212.43115 C843.694245,213.188511 844.055499,213.966597 844.37436,214.765406 C844.807495,215.852465 845.161376,216.971552 845.426787,218.11513 C845.764079,219.569566 845.944706,221.050378 845.972353,222.544377 L846,227 L810,227 C810.009216,225.436293 810.001843,223.872586 810.031333,222.308879 C810.075568,220.816764 810.274626,219.335952 810.626664,217.887168 C810.903133,216.747358 811.268073,215.630155 811.712267,214.548748 C812.038501,213.753707 812.407127,212.977505 812.818145,212.223912 C813.114888,211.675672 813.43375,211.140621 813.774729,210.618757 C815.999386,207.204977 819.160352,204.324366 822.966414,202.915145 C823.57096,202.690951 824.188409,202.506321 824.815073,202.363138 C825.780872,202.140828 826.759574,202.027789 827.747491,202.001413 C828,201.999529 827.998157,201.999529 828.250666,202.001413 Z M827.893099,210.43601 C827.537375,210.447314 827.183494,210.481226 826.833299,210.54905 C824.975425,210.910775 823.344256,212.075077 822.065124,213.461689 C821.840262,213.706607 821.622773,213.960945 821.416342,214.222819 C821.141716,214.567588 820.883678,214.927429 820.644071,215.29669 C820.343641,215.756382 820.070858,216.23303 819.822036,216.722866 C819.528978,217.301249 819.276469,217.898472 819.057137,218.510767 L819.038706,218.563519 L836.961294,218.563519 C836.889412,218.358164 836.812001,218.154694 836.732746,217.953108 C836.48761,217.348349 836.211141,216.758662 835.894122,216.191582 C835.652673,215.756382 835.390948,215.33437 835.107106,214.927429 C834.884088,214.609036 834.65001,214.298178 834.401188,213.998625 C834.189228,213.742403 833.969896,213.495601 833.739504,213.256335 C832.519353,211.990297 830.995085,210.935266 829.269916,210.571657 C828.921565,210.496298 828.569527,210.45485 828.21196,210.439778 C828.105058,210.43601 828,210.43601 827.893099,210.43601 Z" id="Shape"></path>
            <path d="M119,261.411264 L119,548 L0,548 L0,259.984119 L61.0004,157 C80.3342347,191.80501 99.6661653,226.608137 119,261.411264 Z M8.52638484,262.271693 L8.52638484,539.568926 L110.473615,539.568926 L110.473615,263.574574 L60.7623924,174.084316 C43.3497552,203.480108 25.939022,232.8759 8.52638484,262.271693 Z" id="Shape"></path>
            <path d="M116,486.316667 L108.527558,490 L1,262.683333 L8.47244247,259 C44.3149616,334.772222 80.1574808,410.544445 116,486.316667 Z" id="Shape"></path>
            <path d="M882,547 L759,547 L759,357 L882,357 L882,547 Z M767.484065,365.429218 L767.484065,538.570782 L873.515935,538.570782 L873.515935,365.429218 L767.484065,365.429218 Z" id="Shape"></path>
            <path d="M838.158519,406 L804.839594,406 L768,370 L875,370 C862.720135,381.998751 850.440271,393.999375 838.158519,406 Z M788.636968,378.391442 L808.301741,397.608558 L834.696371,397.608558 L854.363032,378.391442 L788.636968,378.391442 Z" id="Shape"></path>
            <path d="M767,548 L659,548 L659,434 L767,434 L767,548 Z M667.376182,442.380949 L667.376182,539.619051 L758.623818,539.619051 L758.623818,442.380949 L667.376182,442.380949 Z" id="Shape"></path>
            <path d="M769,443 L703,443 L703,409 L769,409 L769,443 Z M711.470851,417.615924 L711.470851,434.384076 L760.529149,434.384076 L760.529149,417.615924 L711.470851,417.615924 Z" id="Shape"></path>
            <path d="M708,380 L659,380 L659,359 L708,359 L708,380 Z M667.373288,367.800112 L667.373288,371.199888 L699.626712,371.199888 L699.626712,367.800112 L667.373288,367.800112 Z" id="Shape"></path>
            <path d="M402,28 L344,28 L344,0 L402,0 L402,28 Z M352.544115,8.17632866 L352.544115,19.8236713 L393.455885,19.8236713 L393.455885,8.17632866 L352.544115,8.17632866 Z" id="Shape"></path>
            <path d="M592,266.413979 L550.837218,266.413979 L550.837218,325.086361 L500.472075,325.086361 L500.472075,363 L492,363 L492,316.672381 L542.365143,316.672381 L542.365143,258 L592,258 L592,266.413979 Z" id="Shape"></path>
            <rect id="Rectangle-path" x="542" y="261" width="8" height="142"></rect>
            <path d="M434,278.586276 L425.503518,278.586276 L425.503518,59.4282848 L322.496482,59.4282848 L322.496482,309 L314,309 L314,51 L434,51 L434,278.586276 Z" id="Shape"></path>
            <path d="M410,279.609138 L401.596582,279.609138 L401.596582,29.4219493 L344.403418,29.4219493 L344.403418,310 L336,310 L336,21 L410,21 L410,279.609138 Z" id="Shape"></path>
            <path d="M185.604566,296.639008 L259,296.639008 L259,344.484939 L250.550166,344.484939 L250.550166,305.013542 L177.154731,305.013542 L177.154731,291.374534 L144.449834,291.374534 L144.449834,424 L136,424 L136,283 L185.604566,283 L185.604566,296.639008 Z" id="Shape"></path>
            <rect id="Rectangle-path" x="83" y="540" width="123" height="8"></rect>
            <path d="M758.541603,261.004574 L770.287171,261.004574 L770.287171,282.261704 L777,282.261704 L777,290.695249 L761.862271,290.695249 L761.862271,269.438119 L750.116702,269.438119 L750.116702,252.433545 L724.567315,252.433545 L724.567315,269.438119 L713.948704,269.438119 L713.948704,290.695249 L695.900452,290.695249 L695.900452,307.699823 L683.424901,307.699823 L683.424901,363 L675,363 L675,299.266277 L687.475551,299.266277 L687.475551,282.261704 L705.523803,282.261704 L705.523803,261.004574 L716.142414,261.004574 L716.142414,244 L758.541603,244 L758.541603,261.004574 Z" id="Shape"></path>
            <rect id="Rectangle-path" x="799" y="400" width="8" height="145"></rect>
            <rect id="Rectangle-path" x="834" y="400" width="8" height="145"></rect>
            <rect id="Rectangle-path" x="763" y="421" width="114" height="8"></rect>
            <rect id="Rectangle-path" x="763" y="444" width="114" height="8"></rect>
            <rect id="Rectangle-path" x="763" y="469" width="114" height="8"></rect>
            <rect id="Rectangle-path" x="763" y="491" width="114" height="8"></rect>
            <rect id="Rectangle-path" x="763" y="515" width="114" height="8"></rect>
            <path d="M810,399.738214 L804.056864,406 L761,365.261786 L766.943136,359 L810,399.738214 Z" id="Shape"></path>
            <path d="M882,365.261786 L838.943136,406 L833,399.738214 L876.056864,359 C878.036623,361.08662 880.018311,363.175166 882,365.261786 Z" id="Shape"></path>
            <rect id="Rectangle-path" x="763" y="397" width="20" height="8"></rect>
            <rect id="Rectangle-path" x="859" y="397" width="20" height="8"></rect>
            <rect id="Rectangle-path" x="638" y="540" width="61" height="8"></rect>
            <path d="M734,413 L725.59179,413 L725.59179,379.41127 L647,379.41127 L647,371 L734,371 L734,413 Z" id="Shape"></path>
            <rect id="Rectangle-path" x="681" y="468" width="8" height="75"></rect>
            <rect id="Rectangle-path" x="681" y="447" width="8" height="12"></rect>
            <rect id="Rectangle-path" x="700" y="468" width="8" height="75"></rect>
            <rect id="Rectangle-path" x="700" y="447" width="8" height="12"></rect>
            <rect id="Rectangle-path" x="721" y="468" width="8" height="75"></rect>
            <rect id="Rectangle-path" x="721" y="447" width="8" height="12"></rect>
            <rect id="Rectangle-path" x="738" y="468" width="8" height="75"></rect>
            <rect id="Rectangle-path" x="738" y="447" width="8" height="12"></rect>
            <rect id="Rectangle-path" x="167" y="403" width="8" height="139"></rect>
            <rect id="Rectangle-path" x="234" y="381" width="8" height="162"></rect>
            <rect id="Rectangle-path" x="294" y="341" width="8" height="202"></rect>
            <path d="M388,543.99812 L380.053239,544 L380,281.00188 L387.946761,281 C387.964508,368.665413 387.982254,456.332707 388,543.99812 Z" id="Shape"></path>
            <rect id="Rectangle-path" x="442" y="344" width="8" height="200"></rect>
            <rect id="Rectangle-path" x="506" y="376" width="8" height="166"></rect>
            <rect id="Rectangle-path" x="568" y="403" width="8" height="139"></rect>
            <rect id="Rectangle-path" x="359" y="311" width="8" height="233"></rect>
            <rect id="Rectangle-path" x="141" y="297" width="94" height="8"></rect>
            <rect id="Rectangle-path" x="588" y="233" width="8" height="213"></rect>
            <rect id="Rectangle-path" x="644" y="233" width="8" height="314"></rect>
            <path d="M618.903841,115.00048 C621.822631,115.028753 624.735811,115.239852 627.624683,115.665822 C633.348204,116.510221 638.950186,118.163208 644.22121,120.566353 C650.172848,123.276724 655.690688,126.938929 660.524174,131.366371 C665.806417,136.206588 670.262199,141.957173 673.631615,148.301477 C676.526097,153.750491 678.614687,159.629244 679.805762,165.690824 C681.144554,172.498793 681.357713,179.532941 680.445241,186.412533 C679.594473,192.834114 677.7527,199.114334 674.996584,204.970469 C671.825369,211.710585 667.455598,217.866406 662.160267,223.077933 C656.586332,228.562758 650.002694,232.988315 642.828193,236.047378 C639.049286,237.658899 635.111444,238.889686 631.09133,239.719007 C627.082435,240.546443 622.995008,240.972412 618.903841,240.9988 C614.932342,241.023302 610.960844,240.672726 607.056659,239.945185 C602.886959,239.166755 598.799531,237.958585 594.874778,236.34141 C587.659141,233.370934 581.019409,229.022655 575.378161,223.601913 C570.024865,218.456355 565.582171,212.357078 562.330554,205.658428 C559.510864,199.847529 557.592429,193.599351 556.663128,187.196618 C555.685212,180.458387 555.788052,173.556177 556.977258,166.851873 C558.056144,160.754481 560.040024,154.826723 562.841015,149.31551 C565.982313,143.129531 570.148273,137.482611 575.107037,132.657472 C580.07515,127.826679 585.832327,123.828976 592.086876,120.884888 C597.320503,118.421428 602.894438,116.700588 608.59926,115.78645 C611.475044,115.324669 614.378875,115.075873 617.290186,115.009904 C617.828694,115.002365 618.365333,114.998595 618.903841,115.00048 Z M618.148433,123.440703 C615.618566,123.465206 613.092439,123.648034 610.58688,124.017458 C605.633725,124.748768 600.787151,126.179347 596.226659,128.256418 C590.577931,130.831082 585.3817,134.393391 580.922178,138.730362 C576.782396,142.758222 573.280222,147.447653 570.59516,152.576248 C568.170003,157.209135 566.416111,162.194483 565.406408,167.332502 C564.224682,173.345077 564.056398,179.563098 564.899687,185.634103 C565.670053,191.183012 567.296797,196.603754 569.708865,201.651301 C572.491158,207.47351 576.309331,212.781162 580.922178,217.267033 C585.778102,221.990392 591.505362,225.790189 597.735604,228.402549 C601.224689,229.863284 604.865229,230.95271 608.580562,231.646324 C611.850878,232.25512 615.175419,232.558576 618.49996,232.558576 C621.8245,232.558576 625.149041,232.25512 628.419357,231.646324 C632.13282,230.95271 635.775231,229.863284 639.262446,228.402549 C645.494557,225.790189 651.221817,221.990392 656.077741,217.267033 C660.690588,212.781162 664.506892,207.47351 667.289184,201.651301 C669.703123,196.603754 671.329866,191.183012 672.100232,185.634103 C672.941652,179.563098 672.773368,173.346962 671.591641,167.332502 C670.56137,162.085164 668.755124,156.99992 666.249564,152.285986 C663.330775,146.787966 659.469595,141.806388 654.892275,137.612664 C650.705747,133.777055 645.926486,130.604903 640.773261,128.256418 C636.210899,126.179347 631.364324,124.748768 626.41117,124.017458 C623.90748,123.648034 621.381353,123.465206 618.849616,123.440703 C618.615888,123.438819 618.382161,123.438819 618.148433,123.440703 Z" id="Shape"></path>
            <path d="M626,179 C626,182.314107 623.314107,185 620,185 C616.685893,185 614,182.314107 614,179 C614,175.685893 616.685893,173 620,173 C623.314107,173 626,175.685893 626,179" id="Shape"></path>
            <path d="M626,160 C626,163.314107 623.314107,166 620,166 C616.685893,166 614,163.314107 614,160 C614,156.685893 616.685893,154 620,154 C623.314107,154 626,156.685893 626,160" id="Shape"></path>
            <path d="M626,197 C626,200.314107 623.314107,203 620,203 C616.685893,203 614,200.314107 614,197 C614,193.685893 616.685893,191 620,191 C623.314107,191 626,193.685893 626,197" id="Shape"></path>
            <path d="M626,215 C626,218.314107 623.314107,221 620,221 C616.685893,221 614,218.314107 614,215 C614,211.685893 616.685893,209 620,209 C623.314107,209 626,211.685893 626,215" id="Shape"></path>
            <path d="M626,142 C626,145.314107 623.314107,148 620,148 C616.685893,148 614,145.314107 614,142 C614,138.685893 616.685893,136 620,136 C623.314107,136 626,138.685893 626,142" id="Shape"></path>
            <path d="M610,179 C610,182.314107 607.314107,185 604,185 C600.685893,185 598,182.314107 598,179 C598,175.685893 600.685893,173 604,173 C607.314107,173 610,175.685893 610,179" id="Shape"></path>
            <path d="M610,160 C610,163.314107 607.314107,166 604,166 C600.685893,166 598,163.314107 598,160 C598,156.685893 600.685893,154 604,154 C607.314107,154 610,156.685893 610,160" id="Shape"></path>
            <path d="M610,197 C610,200.314107 607.314107,203 604,203 C600.685893,203 598,200.314107 598,197 C598,193.685893 600.685893,191 604,191 C607.314107,191 610,193.685893 610,197" id="Shape"></path>
            <path d="M610,215 C610,218.314107 607.314107,221 604,221 C600.685893,221 598,218.314107 598,215 C598,211.685893 600.685893,209 604,209 C607.314107,209 610,211.685893 610,215" id="Shape"></path>
            <path d="M610,142 C610,145.314107 607.314107,148 604,148 C600.685893,148 598,145.314107 598,142 C598,138.685893 600.685893,136 604,136 C607.314107,136 610,138.685893 610,142" id="Shape"></path>
            <path d="M641,179 C641,182.314107 638.314107,185 635,185 C631.685893,185 629,182.314107 629,179 C629,175.685893 631.685893,173 635,173 C638.314107,173 641,175.685893 641,179" id="Shape"></path>
            <path d="M641,160 C641,163.314107 638.314107,166 635,166 C631.685893,166 629,163.314107 629,160 C629,156.685893 631.685893,154 635,154 C638.314107,154 641,156.685893 641,160" id="Shape"></path>
            <path d="M641,197 C641,200.314107 638.314107,203 635,203 C631.685893,203 629,200.314107 629,197 C629,193.685893 631.685893,191 635,191 C638.314107,191 641,193.685893 641,197" id="Shape"></path>
            <path d="M641,215 C641,218.314107 638.314107,221 635,221 C631.685893,221 629,218.314107 629,215 C629,211.685893 631.685893,209 635,209 C638.314107,209 641,211.685893 641,215" id="Shape"></path>
            <path d="M641,142 C641,145.314107 638.314107,148 635,148 C631.685893,148 629,145.314107 629,142 C629,138.685893 631.685893,136 635,136 C638.314107,136 641,138.685893 641,142" id="Shape"></path>
            <path d="M658,179 C658,182.314107 655.314107,185 652,185 C648.685893,185 646,182.314107 646,179 C646,175.685893 648.685893,173 652,173 C655.314107,173 658,175.685893 658,179" id="Shape"></path>
            <path d="M658,160 C658,163.314107 655.314107,166 652,166 C648.685893,166 646,163.314107 646,160 C646,156.685893 648.685893,154 652,154 C655.314107,154 658,156.685893 658,160" id="Shape"></path>
            <path d="M658,197 C658,200.314107 655.314107,203 652,203 C648.685893,203 646,200.314107 646,197 C646,193.685893 648.685893,191 652,191 C655.314107,191 658,193.685893 658,197" id="Shape"></path>
            <path d="M594,179 C594,182.314107 591.314107,185 588,185 C584.685893,185 582,182.314107 582,179 C582,175.685893 584.685893,173 588,173 C591.314107,173 594,175.685893 594,179" id="Shape"></path>
            <path d="M594,160 C594,163.314107 591.314107,166 588,166 C584.685893,166 582,163.314107 582,160 C582,156.685893 584.685893,154 588,154 C591.314107,154 594,156.685893 594,160" id="Shape"></path>
            <path d="M594,197 C594,200.314107 591.314107,203 588,203 C584.685893,203 582,200.314107 582,197 C582,193.685893 584.685893,191 588,191 C591.314107,191 594,193.685893 594,197" id="Shape"></path>
            <rect id="Rectangle-path" x="341" y="76" width="66" height="8"></rect>
            <rect id="Rectangle-path" x="341" y="101" width="66" height="8"></rect>
            <rect id="Rectangle-path" x="341" y="124" width="66" height="8"></rect>
            <rect id="Rectangle-path" x="341" y="148" width="66" height="8"></rect>
            <rect id="Rectangle-path" x="341" y="173" width="66" height="8"></rect>
            <rect id="Rectangle-path" x="341" y="197" width="66" height="8"></rect>
            <rect id="Rectangle-path" x="341" y="221" width="66" height="8"></rect>
            <rect id="Rectangle-path" x="341" y="244" width="66" height="8"></rect>
            <rect id="Rectangle-path" x="341" y="269" width="66" height="8"></rect>
            <rect id="Rectangle-path" x="341" y="292" width="21" height="8"></rect>
            <rect id="Rectangle-path" x="785" y="269" width="29" height="8"></rect>
            <rect id="Rectangle-path" x="844" y="269" width="32" height="8"></rect>
            <rect id="Rectangle-path" x="141" y="315" width="83" height="8"></rect>
            <rect id="Rectangle-path" x="141" y="337" width="83" height="8"></rect>
            <rect id="Rectangle-path" x="141" y="357" width="83" height="8"></rect>
            <rect id="Rectangle-path" x="141" y="378" width="83" height="8"></rect>
            <rect id="Rectangle-path" x="604" y="236" width="8" height="209"></rect>
            <rect id="Rectangle-path" x="626" y="236" width="8" height="213"></rect>
            <rect id="Rectangle-path" x="527" y="334" width="8" height="8"></rect>
            <rect id="Rectangle-path" x="527" y="348" width="8" height="8"></rect>
            <rect id="Rectangle-path" x="527" y="363" width="8" height="8"></rect>
            <rect id="Rectangle-path" x="527" y="378" width="8" height="8"></rect>
            <rect id="Rectangle-path" x="557" y="334" width="8" height="8"></rect>
            <rect id="Rectangle-path" x="557" y="348" width="8" height="8"></rect>
            <rect id="Rectangle-path" x="557" y="363" width="8" height="8"></rect>
            <rect id="Rectangle-path" x="557" y="378" width="8" height="8"></rect>
            <rect id="Rectangle-path" x="573" y="288" width="8" height="8"></rect>
            <rect id="Rectangle-path" x="573" y="304" width="8" height="8"></rect>
            <rect id="Rectangle-path" x="573" y="317" width="8" height="8"></rect>
            <rect id="Rectangle-path" x="573" y="334" width="8" height="8"></rect>
            <rect id="Rectangle-path" x="855" y="283" width="8" height="8"></rect>
            <rect id="Rectangle-path" x="855" y="298" width="8" height="8"></rect>
            <rect id="Rectangle-path" x="855" y="312" width="8" height="8"></rect>
            <rect id="Rectangle-path" x="855" y="328" width="8" height="8"></rect>
            <rect id="Rectangle-path" x="855" y="344" width="8" height="8"></rect>
            <rect id="Rectangle-path" x="794" y="283" width="8" height="8"></rect>
            <rect id="Rectangle-path" x="794" y="298" width="8" height="8"></rect>
            <rect id="Rectangle-path" x="794" y="312" width="8" height="8"></rect>
            <rect id="Rectangle-path" x="794" y="328" width="8" height="8"></rect>
            <rect id="Rectangle-path" x="794" y="344" width="8" height="8"></rect>
            <rect id="Rectangle-path" x="855" y="225" width="8" height="8"></rect>
            <rect id="Rectangle-path" x="855" y="237" width="8" height="8"></rect>
            <rect id="Rectangle-path" x="855" y="254" width="8" height="8"></rect>
            <rect id="Rectangle-path" x="794" y="225" width="8" height="8"></rect>
            <rect id="Rectangle-path" x="794" y="237" width="8" height="8"></rect>
            <rect id="Rectangle-path" x="794" y="254" width="8" height="8"></rect>
            <rect id="Rectangle-path" x="734" y="296" width="8" height="12"></rect>
            <rect id="Rectangle-path" x="734" y="333" width="8" height="12"></rect>
            <rect id="Rectangle-path" x="734" y="348" width="8" height="12"></rect>
            <rect id="Rectangle-path" x="747" y="279" width="8" height="12"></rect>
            <rect id="Rectangle-path" x="747" y="296" width="8" height="12"></rect>
            <rect id="Rectangle-path" x="747" y="313" width="8" height="12"></rect>
            <rect id="Rectangle-path" x="721" y="279" width="8" height="12"></rect>
            <rect id="Rectangle-path" x="721" y="313" width="8" height="12"></rect>
            <rect id="Rectangle-path" x="721" y="333" width="8" height="12"></rect>
            <rect id="Rectangle-path" x="662" y="402" width="8" height="8"></rect>
            <rect id="Rectangle-path" x="662" y="419" width="8" height="8"></rect>
            <rect id="Rectangle-path" x="676" y="389" width="8" height="8"></rect>
            <rect id="Rectangle-path" x="676" y="419" width="8" height="8"></rect>
            <rect id="Rectangle-path" x="692" y="402" width="8" height="8"></rect>
            <rect id="Rectangle-path" x="692" y="419" width="8" height="8"></rect>
            <rect id="Rectangle-path" x="705" y="389" width="8" height="8"></rect>
            <rect id="Rectangle-path" x="315" y="414" width="8" height="8"></rect>
            <rect id="Rectangle-path" x="315" y="429" width="8" height="8"></rect>
            <rect id="Rectangle-path" x="315" y="444" width="8" height="8"></rect>
            <rect id="Rectangle-path" x="315" y="459" width="8" height="8"></rect>
            <rect id="Rectangle-path" x="315" y="474" width="8" height="8"></rect>
            <rect id="Rectangle-path" x="315" y="488" width="8" height="8"></rect>
            <rect id="Rectangle-path" x="315" y="503" width="8" height="8"></rect>
            <rect id="Rectangle-path" x="315" y="519" width="8" height="8"></rect>
            <rect id="Rectangle-path" x="315" y="325" width="8" height="8"></rect>
            <rect id="Rectangle-path" x="315" y="341" width="8" height="8"></rect>
            <rect id="Rectangle-path" x="315" y="356" width="8" height="8"></rect>
            <rect id="Rectangle-path" x="315" y="370" width="8" height="8"></rect>
            <rect id="Rectangle-path" x="315" y="385" width="8" height="8"></rect>
            <rect id="Rectangle-path" x="315" y="400" width="8" height="8"></rect>
            <rect id="Rectangle-path" x="337" y="414" width="8" height="8"></rect>
            <rect id="Rectangle-path" x="337" y="429" width="8" height="8"></rect>
            <rect id="Rectangle-path" x="337" y="444" width="8" height="8"></rect>
            <rect id="Rectangle-path" x="337" y="459" width="8" height="8"></rect>
            <rect id="Rectangle-path" x="337" y="474" width="8" height="8"></rect>
            <rect id="Rectangle-path" x="337" y="488" width="8" height="8"></rect>
            <rect id="Rectangle-path" x="337" y="503" width="8" height="8"></rect>
            <rect id="Rectangle-path" x="337" y="519" width="8" height="8"></rect>
            <rect id="Rectangle-path" x="337" y="325" width="8" height="8"></rect>
            <rect id="Rectangle-path" x="337" y="341" width="8" height="8"></rect>
            <rect id="Rectangle-path" x="337" y="356" width="8" height="8"></rect>
            <rect id="Rectangle-path" x="337" y="370" width="8" height="8"></rect>
            <rect id="Rectangle-path" x="337" y="385" width="8" height="8"></rect>
            <rect id="Rectangle-path" x="337" y="400" width="8" height="8"></rect>
            <rect id="Rectangle-path" x="398" y="414" width="8" height="8"></rect>
            <rect id="Rectangle-path" x="398" y="429" width="8" height="8"></rect>
            <rect id="Rectangle-path" x="398" y="444" width="8" height="8"></rect>
            <rect id="Rectangle-path" x="398" y="459" width="8" height="8"></rect>
            <rect id="Rectangle-path" x="398" y="474" width="8" height="8"></rect>
            <rect id="Rectangle-path" x="398" y="488" width="8" height="8"></rect>
            <rect id="Rectangle-path" x="398" y="503" width="8" height="8"></rect>
            <rect id="Rectangle-path" x="398" y="519" width="8" height="8"></rect>
            <rect id="Rectangle-path" x="398" y="296" width="8" height="8"></rect>
            <rect id="Rectangle-path" x="398" y="312" width="8" height="8"></rect>
            <rect id="Rectangle-path" x="398" y="325" width="8" height="8"></rect>
            <rect id="Rectangle-path" x="398" y="341" width="8" height="8"></rect>
            <rect id="Rectangle-path" x="398" y="356" width="8" height="8"></rect>
            <rect id="Rectangle-path" x="398" y="370" width="8" height="8"></rect>
            <rect id="Rectangle-path" x="398" y="385" width="8" height="8"></rect>
            <rect id="Rectangle-path" x="398" y="400" width="8" height="8"></rect>
            <rect id="Rectangle-path" x="420" y="414" width="8" height="8"></rect>
            <rect id="Rectangle-path" x="420" y="429" width="8" height="8"></rect>
            <rect id="Rectangle-path" x="420" y="444" width="8" height="8"></rect>
            <rect id="Rectangle-path" x="420" y="459" width="8" height="8"></rect>
            <rect id="Rectangle-path" x="420" y="474" width="8" height="8"></rect>
            <rect id="Rectangle-path" x="420" y="488" width="8" height="8"></rect>
            <rect id="Rectangle-path" x="420" y="503" width="8" height="8"></rect>
            <rect id="Rectangle-path" x="420" y="519" width="8" height="8"></rect>
            <rect id="Rectangle-path" x="420" y="296" width="8" height="8"></rect>
            <rect id="Rectangle-path" x="420" y="312" width="8" height="8"></rect>
            <rect id="Rectangle-path" x="420" y="325" width="8" height="8"></rect>
            <rect id="Rectangle-path" x="420" y="341" width="8" height="8"></rect>
            <rect id="Rectangle-path" x="420" y="356" width="8" height="8"></rect>
            <rect id="Rectangle-path" x="420" y="370" width="8" height="8"></rect>
            <rect id="Rectangle-path" x="420" y="385" width="8" height="8"></rect>
            <rect id="Rectangle-path" x="420" y="400" width="8" height="8"></rect>
            <rect id="Rectangle-path" x="526" y="414" width="8" height="8"></rect>
            <rect id="Rectangle-path" x="526" y="429" width="8" height="8"></rect>
            <rect id="Rectangle-path" x="526" y="444" width="8" height="8"></rect>
            <rect id="Rectangle-path" x="526" y="459" width="8" height="8"></rect>
            <rect id="Rectangle-path" x="526" y="474" width="8" height="8"></rect>
            <rect id="Rectangle-path" x="526" y="488" width="8" height="8"></rect>
            <rect id="Rectangle-path" x="526" y="503" width="8" height="8"></rect>
            <rect id="Rectangle-path" x="526" y="519" width="8" height="8"></rect>
            <rect id="Rectangle-path" x="548" y="414" width="8" height="8"></rect>
            <rect id="Rectangle-path" x="548" y="429" width="8" height="8"></rect>
            <rect id="Rectangle-path" x="548" y="444" width="8" height="8"></rect>
            <rect id="Rectangle-path" x="548" y="459" width="8" height="8"></rect>
            <rect id="Rectangle-path" x="548" y="474" width="8" height="8"></rect>
            <rect id="Rectangle-path" x="548" y="488" width="8" height="8"></rect>
            <rect id="Rectangle-path" x="548" y="503" width="8" height="8"></rect>
            <rect id="Rectangle-path" x="548" y="519" width="8" height="8"></rect>
            <rect id="Rectangle-path" x="463" y="414" width="8" height="8"></rect>
            <rect id="Rectangle-path" x="463" y="429" width="8" height="8"></rect>
            <rect id="Rectangle-path" x="463" y="444" width="8" height="8"></rect>
            <rect id="Rectangle-path" x="463" y="459" width="8" height="8"></rect>
            <rect id="Rectangle-path" x="463" y="474" width="8" height="8"></rect>
            <rect id="Rectangle-path" x="463" y="488" width="8" height="8"></rect>
            <rect id="Rectangle-path" x="463" y="503" width="8" height="8"></rect>
            <rect id="Rectangle-path" x="463" y="519" width="8" height="8"></rect>
            <rect id="Rectangle-path" x="463" y="385" width="8" height="8"></rect>
            <rect id="Rectangle-path" x="463" y="400" width="8" height="8"></rect>
            <rect id="Rectangle-path" x="485" y="414" width="8" height="8"></rect>
            <rect id="Rectangle-path" x="485" y="429" width="8" height="8"></rect>
            <rect id="Rectangle-path" x="485" y="444" width="8" height="8"></rect>
            <rect id="Rectangle-path" x="485" y="459" width="8" height="8"></rect>
            <rect id="Rectangle-path" x="485" y="474" width="8" height="8"></rect>
            <rect id="Rectangle-path" x="485" y="488" width="8" height="8"></rect>
            <rect id="Rectangle-path" x="485" y="503" width="8" height="8"></rect>
            <rect id="Rectangle-path" x="485" y="519" width="8" height="8"></rect>
            <rect id="Rectangle-path" x="485" y="385" width="8" height="8"></rect>
            <rect id="Rectangle-path" x="485" y="400" width="8" height="8"></rect>
            <rect id="Rectangle-path" x="189" y="414" width="8" height="8"></rect>
            <rect id="Rectangle-path" x="189" y="429" width="8" height="8"></rect>
            <rect id="Rectangle-path" x="189" y="444" width="8" height="8"></rect>
            <rect id="Rectangle-path" x="189" y="459" width="8" height="8"></rect>
            <rect id="Rectangle-path" x="189" y="474" width="8" height="8"></rect>
            <rect id="Rectangle-path" x="189" y="488" width="8" height="8"></rect>
            <rect id="Rectangle-path" x="189" y="503" width="8" height="8"></rect>
            <rect id="Rectangle-path" x="189" y="519" width="8" height="8"></rect>
            <rect id="Rectangle-path" x="211" y="414" width="8" height="8"></rect>
            <rect id="Rectangle-path" x="211" y="429" width="8" height="8"></rect>
            <rect id="Rectangle-path" x="211" y="444" width="8" height="8"></rect>
            <rect id="Rectangle-path" x="211" y="459" width="8" height="8"></rect>
            <rect id="Rectangle-path" x="211" y="474" width="8" height="8"></rect>
            <rect id="Rectangle-path" x="211" y="488" width="8" height="8"></rect>
            <rect id="Rectangle-path" x="211" y="503" width="8" height="8"></rect>
            <rect id="Rectangle-path" x="211" y="519" width="8" height="8"></rect>
            <rect id="Rectangle-path" x="253" y="414" width="8" height="8"></rect>
            <rect id="Rectangle-path" x="253" y="429" width="8" height="8"></rect>
            <rect id="Rectangle-path" x="253" y="444" width="8" height="8"></rect>
            <rect id="Rectangle-path" x="253" y="459" width="8" height="8"></rect>
            <rect id="Rectangle-path" x="253" y="474" width="8" height="8"></rect>
            <rect id="Rectangle-path" x="253" y="488" width="8" height="8"></rect>
            <rect id="Rectangle-path" x="253" y="503" width="8" height="8"></rect>
            <rect id="Rectangle-path" x="253" y="519" width="8" height="8"></rect>
            <rect id="Rectangle-path" x="253" y="356" width="8" height="8"></rect>
            <rect id="Rectangle-path" x="253" y="370" width="8" height="8"></rect>
            <rect id="Rectangle-path" x="253" y="385" width="8" height="8"></rect>
            <rect id="Rectangle-path" x="253" y="400" width="8" height="8"></rect>
            <rect id="Rectangle-path" x="276" y="414" width="8" height="8"></rect>
            <rect id="Rectangle-path" x="276" y="429" width="8" height="8"></rect>
            <rect id="Rectangle-path" x="276" y="444" width="8" height="8"></rect>
            <rect id="Rectangle-path" x="276" y="459" width="8" height="8"></rect>
            <rect id="Rectangle-path" x="276" y="474" width="8" height="8"></rect>
            <rect id="Rectangle-path" x="276" y="488" width="8" height="8"></rect>
            <rect id="Rectangle-path" x="276" y="503" width="8" height="8"></rect>
            <rect id="Rectangle-path" x="276" y="519" width="8" height="8"></rect>
            <rect id="Rectangle-path" x="276" y="356" width="8" height="8"></rect>
            <rect id="Rectangle-path" x="276" y="370" width="8" height="8"></rect>
            <rect id="Rectangle-path" x="276" y="385" width="8" height="8"></rect>
            <rect id="Rectangle-path" x="276" y="400" width="8" height="8"></rect>
            <rect id="Rectangle-path" x="127" y="444" width="8" height="8"></rect>
            <rect id="Rectangle-path" x="127" y="459" width="8" height="8"></rect>
            <rect id="Rectangle-path" x="127" y="474" width="8" height="8"></rect>
            <rect id="Rectangle-path" x="127" y="488" width="8" height="8"></rect>
            <rect id="Rectangle-path" x="127" y="503" width="8" height="8"></rect>
            <rect id="Rectangle-path" x="127" y="519" width="8" height="8"></rect>
            <rect id="Rectangle-path" x="149" y="444" width="8" height="8"></rect>
            <rect id="Rectangle-path" x="149" y="459" width="8" height="8"></rect>
            <rect id="Rectangle-path" x="149" y="474" width="8" height="8"></rect>
            <rect id="Rectangle-path" x="149" y="488" width="8" height="8"></rect>
            <rect id="Rectangle-path" x="149" y="503" width="8" height="8"></rect>
            <rect id="Rectangle-path" x="149" y="519" width="8" height="8"></rect>
            <rect id="Rectangle-path" x="589" y="459" width="8" height="8"></rect>
            <rect id="Rectangle-path" x="589" y="474" width="8" height="8"></rect>
            <rect id="Rectangle-path" x="589" y="488" width="8" height="8"></rect>
            <rect id="Rectangle-path" x="589" y="503" width="8" height="8"></rect>
            <rect id="Rectangle-path" x="589" y="519" width="8" height="8"></rect>
            <rect id="Rectangle-path" x="611" y="459" width="8" height="8"></rect>
            <rect id="Rectangle-path" x="611" y="474" width="8" height="8"></rect>
            <rect id="Rectangle-path" x="611" y="488" width="8" height="8"></rect>
            <rect id="Rectangle-path" x="611" y="503" width="8" height="8"></rect>
            <rect id="Rectangle-path" x="611" y="519" width="8" height="8"></rect>
        </g>
    </g>
</svg>