<svg>
    <defs>
        <symbol id="agent-circle">
            <title>Agent Circle</title>
            <g fill="none" fill-rule="evenodd">
                <ellipse cx="25" cy="24.97" fill="#00A9D7" rx="25" ry="24.97"/>
                <path fill="#FFF" d="M31.7 21.6c-.6 1.98-1.1 2.08-1.43 1.88-.4 2.12-1.57 4.85-5.4 5-3.87-.3-5.1-3.1-5.44-5.24-.3-.03-.72-.45-1.16-1.94-.6-2.05.04-2.36.58-2.3-.4-1.08-.4-2.14-.14-3.12.3-1.16.94-2.08 1.66-2.8.46-.46.98-.87 1.53-1.2.44-.3.94-.57 1.48-.74.42-.14.87-.23 1.35-.25 1.48-.13 2.6.22 3.4.68 1.2.63 1.65 1.48 1.65 1.48s3 .2 1.7 6.28c.4.14.68.67.2 2.27zm-6.65 17.47c5.08 0 9.68-1.98 13-5.18-.07-1.4-.55-3.15-2.46-3.62-3.27-.8-5.92-2.6-5.92-2.6L27.6 34l-.38 1.2v-.02l-.35 1-1.1-2.98c2.77-3.7-.72-3.56-.72-3.56s-3.5-.14-.73 3.56l-1.1 3-.34-1-2.46-7.5s-2.65 1.8-5.9 2.6c-1.92.47-2.4 2.23-2.48 3.6 3.33 3.2 7.93 5.2 13 5.2z"/>
            </g>
        </symbol>
        <symbol id="agent-circle-past">
          <title>Agent Circle</title>
          <g fill="none" fill-rule="evenodd">
              <ellipse cx="25" cy="24.97" fill="#808080a3" rx="25" ry="24.97"/>
              <path fill="#FFF" d="M31.7 21.6c-.6 1.98-1.1 2.08-1.43 1.88-.4 2.12-1.57 4.85-5.4 5-3.87-.3-5.1-3.1-5.44-5.24-.3-.03-.72-.45-1.16-1.94-.6-2.05.04-2.36.58-2.3-.4-1.08-.4-2.14-.14-3.12.3-1.16.94-2.08 1.66-2.8.46-.46.98-.87 1.53-1.2.44-.3.94-.57 1.48-.74.42-.14.87-.23 1.35-.25 1.48-.13 2.6.22 3.4.68 1.2.63 1.65 1.48 1.65 1.48s3 .2 1.7 6.28c.4.14.68.67.2 2.27zm-6.65 17.47c5.08 0 9.68-1.98 13-5.18-.07-1.4-.55-3.15-2.46-3.62-3.27-.8-5.92-2.6-5.92-2.6L27.6 34l-.38 1.2v-.02l-.35 1-1.1-2.98c2.77-3.7-.72-3.56-.72-3.56s-3.5-.14-.73 3.56l-1.1 3-.34-1-2.46-7.5s-2.65 1.8-5.9 2.6c-1.92.47-2.4 2.23-2.48 3.6 3.33 3.2 7.93 5.2 13 5.2z"/>
          </g>
        </symbol>
        <symbol id="angle-down">
            <title>Angle Down</title>
            <path fill="#00ACDD" fill-rule="evenodd" d="M0 0h2.72l3.76 5.23L10.26 0H13L7.78 7H5.22L0 0zm6.5 8.54L5.24 7h2.53L6.5 8.54z"/>
        </symbol>
        <symbol id="angle-right">
            <title>Angle Right</title>
            <path fill-opacity=".8" fill-rule="evenodd" d="M1.68.26C1.34-.04.74-.1.34.16c-.4.26-.46.7-.12 1L7.82 8 .2 14.83c-.34.3-.28.75.12 1 .4.26 1 .22 1.34-.1l8.1-7.27c.15-.14.22-.3.22-.46 0-.16-.07-.32-.22-.46L1.68.26z"/>
        </symbol>
        <symbol id="apple-circle">
            <title>Apple Circle</title>
            <g fill="none" fill-rule="evenodd">
                <circle cx="25" cy="25" r="25" fill="#FF9800"/>
                <path fill="#FFF" d="M37.84 24.2c0 6.92-4.54 15-8.24 15-2.17 0-1.62-1.33-4.8-1.33-2.15 0-2.53 1.5-5.1.98-1.8-.4-7.54-4.02-7.54-16.4 0-4.44 2.67-7.04 6.7-6.83 1.75.1 2.83 1.07 4.87 1.75-.8-2.1 0-5.04 1.92-6.4 1.12-.56 2.62.47 1.66 1.53-.32.3-2 2.27-.78 5.26 2.8.17 3.8-1.84 6.2-1.63 2.54.22 5.12 1.5 5.12 8.07z"/>
            </g>
        </symbol>
        <symbol id="arrow-left">
            <title>Arrow Left</title>
            <path fill="#FFF" fill-rule="evenodd" d="M2.02 9.8h17.66v1.05H2l8.05 8.03.37.38-.74.74-.38-.37L.37 10.7 0 10.32l.74-.74.1.1-.1-.1.38-.37 8.2-8.18.36-.37.74.74-.37.37"/>
        </symbol>
        <symbol id="arrow-left-2">
            <title>Arrow Left 2</title>
            <path fill="#607D8B" fill-rule="evenodd" d="M6.55.64L7.87 2.2l-4.3 5.06h11.8v2.2H3.66l4.2 4.98L6.55 16 .85 9.27 0 8.3l1.38-1.56"/>
        </symbol>
        <symbol id="ban">
            <title>Ban</title>
            <path fill="#D00" fill-rule="evenodd" d="M10 0C4.5 0 0 4.5 0 10s4.5 10 10 10 10-4.5 10-10S15.5 0 10 0zm0 2.5c1.6 0 3.12.5 4.34 1.37L3.87 14.34C3 13.12 2.5 11.6 2.5 10c0-4.16 3.34-7.5 7.5-7.5zm6.13 3.16C17 6.88 17.5 8.4 17.5 10c0 4.16-3.34 7.5-7.5 7.5-1.6 0-3.12-.5-4.34-1.37L16.13 5.66z"/>
        </symbol>
        <symbol id="bank">
            <title>Bank</title>
            <g fill="#000" fill-rule="evenodd">
                <path d="M20.92 10.3c0 1.8 1.38 3.27 3.08 3.27 1.7 0 3.08-1.46 3.08-3.27 0-1.8-1.38-3.27-3.08-3.27-1.7 0-3.08 1.47-3.08 3.27zm4.7 0c0 .94-.73 1.7-1.62 1.7-.9 0-1.6-.76-1.6-1.7s.7-1.7 1.6-1.7c.9 0 1.6.76 1.6 1.7z"/>
                <path d="M.38 17.53h47.24L24 .7.38 17.53zm4.83-1.57L24 2.58l18.8 13.38H5.2zM.47 49.3h47.06v-6.28H.47v6.28zm1.47-4.72h44.12v3.16H1.94v-3.16zM6.6 20.1v20.12h7.35V20.1H6.6zm5.52 18.55h-3.7v-17h3.7v17zM20.84 20.1v20.12h7.35V20.1h-7.36zm5.52 18.55h-3.7v-17h3.7v17zM35.5 20.1v20.12h7.37V20.1H35.5zm5.53 18.55h-3.7v-17h3.7v17z"/>
            </g>
        </symbol>
        <symbol id="bell-o">
            <title>Bell Open</title>
            <path fill="#000" fill-opacity=".7" fill-rule="evenodd" d="M10.63 25c1.38 0 2.5-1.12 2.5-2.5h-5c0 1.38 1.1 2.5 2.5 2.5zm8.12-14.38c0-3.84-2.67-7.04-6.25-7.9v-.85C12.5.84 11.66 0 10.62 0 9.6 0 8.75.84 8.75 1.88v.85c-3.58.85-6.25 4.05-6.25 7.9v6.87L0 20v1.25h21.25V20l-2.5-2.5v-6.88zM4.37 18v-7.86c0-3.4 2.8-6.14 6.25-6.14 3.46 0 6.26 2.75 6.26 6.14v7.95L18 20H3l1.37-2z"/>
        </symbol>
        <symbol id="bell">
            <title>Bell</title>
            <path fill="#FFF" fill-rule="evenodd" d="M8 18c1.04 0 1.88-.8 1.88-1.8H6.12c0 1 .84 1.8 1.88 1.8zm6.12-5.4V7.65c0-2.77-2-5.08-4.7-5.7v-.6C9.4.6 8.77 0 8 0c-.78 0-1.4.6-1.4 1.35v.6c-2.7.62-4.72 2.93-4.72 5.7v4.95L0 14.4v.9h16v-.9l-1.88-1.8z"/>
        </symbol>
        <symbol id="bowl-food">
            <title>Bowl Food</title>
            <g fill="none" fill-rule="evenodd">
                <circle cx="25" cy="25" r="25" fill="#FF9800"/>
                <g fill="#FFF">
                    <path d="M8.33 29.08c0 5.64 4.67 10.2 10.42 10.2h12.5c5.75 0 10.42-4.56 10.42-10.2H8.33zM33.33 22.96c-1.54 0-2.87.82-3.6 2.04h-.56c0-2.25-1.87-4.08-4.17-4.08s-4.17 1.83-4.17 4.08h-.57c-.73-1.22-2.05-2.04-3.6-2.04-2.3 0-4.16 1.83-4.16 4.08h25c0-2.25-1.87-4.08-4.17-4.08zM21.2 18.88c.57 0 1.04-.46 1.04-1.02v-4.08c0-.57-.47-1.02-1.04-1.02-.58 0-1.04.45-1.04 1.02v4.08c0 .56.46 1.02 1.04 1.02zM25.37 16.84c.57 0 1.04-.46 1.04-1.02v-4.1c0-.55-.46-1-1.03-1-.58 0-1.05.45-1.05 1v4.1c0 .56.47 1.02 1.05 1.02zM29.53 18.88c.58 0 1.04-.46 1.04-1.02v-4.08c0-.57-.46-1.02-1.04-1.02-.58 0-1.04.45-1.04 1.02v4.08c0 .56.45 1.02 1.03 1.02z"/>
                </g>
            </g>
        </symbol>
        <symbol id="bowl-food-past">
          <title>Bowl Food</title>
          <g fill="none" fill-rule="evenodd">
              <circle cx="25" cy="25" r="25" fill="#808080a3"/>
              <g fill="#FFF">
                  <path d="M8.33 29.08c0 5.64 4.67 10.2 10.42 10.2h12.5c5.75 0 10.42-4.56 10.42-10.2H8.33zM33.33 22.96c-1.54 0-2.87.82-3.6 2.04h-.56c0-2.25-1.87-4.08-4.17-4.08s-4.17 1.83-4.17 4.08h-.57c-.73-1.22-2.05-2.04-3.6-2.04-2.3 0-4.16 1.83-4.16 4.08h25c0-2.25-1.87-4.08-4.17-4.08zM21.2 18.88c.57 0 1.04-.46 1.04-1.02v-4.08c0-.57-.47-1.02-1.04-1.02-.58 0-1.04.45-1.04 1.02v4.08c0 .56.46 1.02 1.04 1.02zM25.37 16.84c.57 0 1.04-.46 1.04-1.02v-4.1c0-.55-.46-1-1.03-1-.58 0-1.05.45-1.05 1v4.1c0 .56.47 1.02 1.05 1.02zM29.53 18.88c.58 0 1.04-.46 1.04-1.02v-4.08c0-.57-.46-1.02-1.04-1.02-.58 0-1.04.45-1.04 1.02v4.08c0 .56.45 1.02 1.03 1.02z"/>
              </g>
          </g>
        </symbol>

        <symbol id ="calendar-plus">
          <title>Calendar Plus</title>
          <path d="M44.0677966,29.220339 L44.0677966,12.7118644 L44.0677966,4.23728814 C44.0677966,3.77118644 43.6864407,3.38983051 43.220339,3.38983051 L38.9830508,3.38983051 L38.9830508,0.847457627 C38.9830508,0.381355932 38.6016949,0 38.1355932,0 L32.2033898,0 C31.7372881,0 31.3559322,0.381355932 31.3559322,0.847457627 L31.3559322,3.38983051 L12.7118644,3.38983051 L12.7118644,0.847457627 C12.7118644,0.381355932 12.3305085,0 11.8644068,0 L5.93220339,0 C5.46610169,0 5.08474576,0.381355932 5.08474576,0.847457627 L5.08474576,3.38983051 L0.847457627,3.38983051 C0.381355932,3.38983051 0,3.77118644 0,4.23728814 L0,12.7118644 L0,47.4576271 C0,47.9237288 0.381355932,48.3050847 0.847457627,48.3050847 L33.1355932,48.3050847 C34.8305085,49.3728814 36.8305085,50 38.9830508,50 C45.059322,50 50,45.059322 50,38.9830508 C50,34.7457627 47.5847458,31.059322 44.0677966,29.220339 L44.0677966,29.220339 Z M33.0508475,1.69491525 L37.2881356,1.69491525 L37.2881356,4.23728814 L37.2881356,6.77966102 L33.0508475,6.77966102 L33.0508475,4.23728814 L33.0508475,1.69491525 L33.0508475,1.69491525 Z M6.77966102,1.69491525 L11.0169492,1.69491525 L11.0169492,4.23728814 L11.0169492,6.77966102 L6.77966102,6.77966102 L6.77966102,4.23728814 L6.77966102,1.69491525 L6.77966102,1.69491525 Z M1.69491525,5.08474576 L5.08474576,5.08474576 L5.08474576,7.62711864 C5.08474576,8.09322034 5.46610169,8.47457627 5.93220339,8.47457627 L11.8644068,8.47457627 C12.3305085,8.47457627 12.7118644,8.09322034 12.7118644,7.62711864 L12.7118644,5.08474576 L31.3559322,5.08474576 L31.3559322,7.62711864 C31.3559322,8.09322034 31.7372881,8.47457627 32.2033898,8.47457627 L38.1355932,8.47457627 C38.6016949,8.47457627 38.9830508,8.09322034 38.9830508,7.62711864 L38.9830508,5.08474576 L42.3728814,5.08474576 L42.3728814,11.8644068 L1.69491525,11.8644068 L1.69491525,5.08474576 L1.69491525,5.08474576 Z M1.69491525,46.6101695 L1.69491525,13.559322 L42.3728814,13.559322 L42.3728814,28.5084746 C42.2033898,28.4576271 42.0338983,28.4152542 41.8644068,28.3644068 C41.7033898,28.3220339 41.5508475,28.279661 41.3898305,28.2457627 C41.2457627,28.2118644 41.1016949,28.1864407 40.9576271,28.1610169 C40.7542373,28.1271186 40.5423729,28.0932203 40.3389831,28.0677966 C40.220339,28.0508475 40.1101695,28.0338983 39.9915254,28.0254237 C39.6610169,27.9830508 39.3220339,27.9661017 38.9830508,27.9661017 C38.6949153,27.9661017 38.4152542,27.9915254 38.1355932,28.0084746 L38.1355932,27.1186441 L38.1355932,25.4237288 L38.1355932,17.7966102 L30.5084746,17.7966102 L28.8135593,17.7966102 L22.8813559,17.7966102 L21.1864407,17.7966102 L15.2542373,17.7966102 L13.559322,17.7966102 L5.93220339,17.7966102 L5.93220339,25.4237288 L5.93220339,27.1186441 L5.93220339,33.0508475 L5.93220339,34.7457627 L5.93220339,42.3728814 L13.559322,42.3728814 L15.2542373,42.3728814 L21.1864407,42.3728814 L22.8813559,42.3728814 L28.5084746,42.3728814 C28.5338983,42.4491525 28.559322,42.5169492 28.5932203,42.5932203 C28.6610169,42.7966102 28.7372881,43.0084746 28.8220339,43.2033898 C28.8728814,43.3135593 28.9237288,43.4237288 28.9745763,43.5338983 C29.0762712,43.7457627 29.1694915,43.9661017 29.279661,44.1694915 C29.3305085,44.2627119 29.3813559,44.3474576 29.4322034,44.440678 C29.559322,44.6610169 29.6864407,44.8728814 29.8220339,45.0847458 C29.8728814,45.1610169 29.9322034,45.2372881 29.9830508,45.3135593 C30.1355932,45.5254237 30.2881356,45.7372881 30.4491525,45.940678 C30.5084746,46.0169492 30.5762712,46.0847458 30.6355932,46.1610169 C30.7627119,46.3135593 30.8898305,46.4661017 31.0338983,46.6186441 L1.69491525,46.6186441 L1.69491525,46.6101695 Z M34.1610169,29.0932203 C34.0677966,29.1355932 33.9745763,29.1779661 33.8898305,29.2288136 C33.7288136,29.3135593 33.5762712,29.4067797 33.4237288,29.4915254 C33.2881356,29.5677966 33.1525424,29.6525424 33.0254237,29.7372881 C32.8898305,29.8220339 32.7627119,29.9152542 32.6355932,30 C32.4915254,30.1016949 32.3474576,30.2118644 32.2033898,30.3220339 C32.0932203,30.4152542 31.9745763,30.5 31.8644068,30.5932203 C31.720339,30.720339 31.5762712,30.8474576 31.4322034,30.9830508 C31.3305085,31.0762712 31.2372881,31.1610169 31.1440678,31.2627119 C30.9915254,31.4152542 30.8474576,31.5847458 30.7033898,31.7457627 C30.6440678,31.8135593 30.5762712,31.8813559 30.5169492,31.9491525 L30.5169492,27.1186441 L36.4491525,27.1186441 L36.4491525,28.2711864 C36.4322034,28.2711864 36.4237288,28.279661 36.4067797,28.279661 C35.6186441,28.4745763 34.8728814,28.7457627 34.1610169,29.0932203 L34.1610169,29.0932203 Z M28.4491525,35.7627119 C28.4152542,35.8559322 28.3983051,35.9576271 28.3728814,36.059322 C28.3050847,36.3050847 28.2372881,36.5508475 28.1864407,36.8050847 C28.1440678,37 28.1271186,37.2033898 28.0932203,37.3983051 C28.0677966,37.559322 28.0338983,37.720339 28.0254237,37.8813559 C27.9830508,38.2457627 27.9661017,38.6101695 27.9661017,38.9830508 C27.9661017,39.2881356 27.9830508,39.6016949 28.0084746,39.9067797 C28.0169492,39.9661017 28.0169492,40.0254237 28.0169492,40.0762712 C28.0338983,40.2118644 28.059322,40.3474576 28.0762712,40.4830508 L28.0762712,40.4830508 C28.0847458,40.5508475 28.0932203,40.6101695 28.1016949,40.6779661 L22.8813559,40.6779661 L22.8813559,34.7457627 L28.8135593,34.7457627 L28.8135593,34.7542373 C28.8050847,34.7711864 28.7966102,34.7966102 28.7881356,34.8135593 C28.6610169,35.1271186 28.5508475,35.440678 28.4491525,35.7627119 L28.4491525,35.7627119 Z M7.62711864,34.7457627 L13.559322,34.7457627 L13.559322,40.6779661 L7.62711864,40.6779661 L7.62711864,34.7457627 L7.62711864,34.7457627 Z M7.62711864,27.1186441 L13.559322,27.1186441 L13.559322,33.0508475 L7.62711864,33.0508475 L7.62711864,27.1186441 L7.62711864,27.1186441 Z M36.440678,25.4237288 L30.5084746,25.4237288 L30.5084746,19.4915254 L36.440678,19.4915254 L36.440678,25.4237288 L36.440678,25.4237288 Z M28.8135593,25.4237288 L22.8813559,25.4237288 L22.8813559,19.4915254 L28.8135593,19.4915254 L28.8135593,25.4237288 L28.8135593,25.4237288 Z M28.8135593,33.0508475 L22.8813559,33.0508475 L22.8813559,27.1186441 L28.8135593,27.1186441 L28.8135593,33.0508475 L28.8135593,33.0508475 Z M15.2542373,27.1186441 L21.1864407,27.1186441 L21.1864407,33.0508475 L15.2542373,33.0508475 L15.2542373,27.1186441 L15.2542373,27.1186441 Z M21.1864407,25.4237288 L15.2542373,25.4237288 L15.2542373,19.4915254 L21.1864407,19.4915254 L21.1864407,25.4237288 L21.1864407,25.4237288 Z M13.559322,25.4237288 L7.62711864,25.4237288 L7.62711864,19.4915254 L13.559322,19.4915254 L13.559322,25.4237288 L13.559322,25.4237288 Z M15.2542373,34.7457627 L21.1864407,34.7457627 L21.1864407,40.6779661 L15.2542373,40.6779661 L15.2542373,34.7457627 L15.2542373,34.7457627 Z M38.9830508,48.3050847 C37.0677966,48.3050847 35.2881356,47.720339 33.8050847,46.7288136 C33.5169492,46.5338983 33.2457627,46.3220339 32.9830508,46.1016949 C32.8898305,46.0254237 32.8050847,45.940678 32.720339,45.8559322 C32.5508475,45.7033898 32.3898305,45.5508475 32.2372881,45.3898305 C32.1355932,45.2881356 32.0423729,45.1779661 31.9491525,45.0677966 C31.8135593,44.9067797 31.6779661,44.7457627 31.5508475,44.5762712 C31.4661017,44.4661017 31.3813559,44.3644068 31.3050847,44.2542373 C31.1186441,43.9830508 30.940678,43.7033898 30.7881356,43.4152542 C30.7542373,43.3474576 30.720339,43.279661 30.6864407,43.2118644 C30.559322,42.9661017 30.4491525,42.720339 30.3474576,42.4745763 C30.3050847,42.3644068 30.2627119,42.2542373 30.2288136,42.1355932 C30.1525424,41.9152542 30.0762712,41.6864407 30.0169492,41.4576271 C30,41.4067797 29.9915254,41.3559322 29.9745763,41.2966102 C29.8813559,40.9237288 29.8050847,40.5508475 29.7542373,40.1864407 C29.7542373,40.1610169 29.7457627,40.1355932 29.7457627,40.1101695 C29.6864407,39.7288136 29.6610169,39.3559322 29.6610169,38.9830508 C29.6610169,38.6610169 29.6779661,38.3474576 29.7118644,38.0254237 C29.7118644,38 29.720339,37.9745763 29.720339,37.9491525 C29.7542373,37.6610169 29.7966102,37.3728814 29.8559322,37.0847458 C29.8644068,37.059322 29.8728814,37.0338983 29.8728814,37 C29.9322034,36.720339 30.0084746,36.440678 30.0932203,36.1610169 C30.1016949,36.1271186 30.1186441,36.1016949 30.1271186,36.0677966 C30.2118644,35.8050847 30.3135593,35.5423729 30.4237288,35.279661 C30.5254237,35.0338983 30.6440678,34.7966102 30.7711864,34.5677966 L30.8559322,34.4322034 C30.8898305,34.3728814 30.9322034,34.3135593 30.9661017,34.2457627 C31.1101695,34 31.2711864,33.7542373 31.440678,33.5254237 C31.4830508,33.4661017 31.5254237,33.4067797 31.5677966,33.3559322 C31.720339,33.1525424 31.8813559,32.9576271 32.0508475,32.7711864 C32.1101695,32.7033898 32.1694915,32.6440678 32.2288136,32.5762712 C32.3983051,32.3983051 32.5677966,32.2372881 32.7457627,32.0677966 C32.8135593,32.0084746 32.8728814,31.9491525 32.9322034,31.8983051 C33.1440678,31.720339 33.3644068,31.5508475 33.5847458,31.3898305 C33.6186441,31.3644068 33.6525424,31.3389831 33.6864407,31.3135593 C34.7881356,30.5508475 36.059322,30.0254237 37.4237288,29.7966102 L37.440678,29.7966102 C37.9491525,29.7118644 38.4576271,29.6610169 38.9830508,29.6610169 C39.3135593,29.6610169 39.6440678,29.6779661 39.9661017,29.7118644 C40.0169492,29.720339 40.0677966,29.7288136 40.1186441,29.7372881 C40.3983051,29.7711864 40.6779661,29.8135593 40.9491525,29.8728814 C40.9830508,29.8813559 41.0169492,29.8898305 41.0508475,29.8983051 C41.3389831,29.9661017 41.6355932,30.0423729 41.9152542,30.1355932 C41.9322034,30.1440678 41.9576271,30.1525424 41.9745763,30.1525424 C42.2627119,30.2542373 42.559322,30.3644068 42.8389831,30.5 C46.059322,31.9661017 48.3050847,35.2118644 48.3050847,38.9745763 C48.3050847,44.1271186 44.1271186,48.3050847 38.9830508,48.3050847 L38.9830508,48.3050847 Z" id="Shape"></path>
          <path d="M44.0677966,38.2033898 L39.8305085,38.2033898 L39.8305085,33.9661017 C39.8305085,33.5 39.4491525,33.1186441 38.9830508,33.1186441 C38.5169492,33.1186441 38.1355932,33.5 38.1355932,33.9661017 L38.1355932,38.2033898 L33.8983051,38.2033898 C33.4322034,38.2033898 33.0508475,38.5847458 33.0508475,39.0508475 C33.0508475,39.5169492 33.4322034,39.8983051 33.8983051,39.8983051 L38.1355932,39.8983051 L38.1355932,44.1355932 C38.1355932,44.6016949 38.5169492,44.9830508 38.9830508,44.9830508 C39.4491525,44.9830508 39.8305085,44.6016949 39.8305085,44.1355932 L39.8305085,39.8983051 L44.0677966,39.8983051 C44.5338983,39.8983051 44.9152542,39.5169492 44.9152542,39.0508475 C44.9152542,38.5847458 44.5338983,38.2033898 44.0677966,38.2033898 L44.0677966,38.2033898 Z" id="Shape"></path>
        </symbol>
        <symbol id="calendar">
            <title>Calendar</title>
            <g fill="none" fill-rule="evenodd">
                <path fill="#00ACDD" d="M0 2h25v23H0z"/>
                <path fill="#FFF" d="M6.1 0c.56 0 1.02.46 1.02 1V3.5c0 .54-.45 1-1 1h-2c-.55 0-1-.46-1-1V1c0-.54.44-1 1-1h2z"/>
                <path fill="#00ACDD" d="M4 1h2.23v2.5H4V2.25"/>
                <path fill="#FFF" d="M21.1 0c.56 0 1.02.46 1.02 1V3.5c0 .54-.45 1-1 1h-2c-.55 0-1-.46-1-1V1c0-.54.44-1 1-1h2z"/>
                <path fill="#00ACDD" d="M19 1h2.23v2.5H19V2.25"/>
                <path fill="#FFF" d="M0 6h25v1H0zM16.05 10H4v12.08h16.96V10h-4.9zm-3.12.83h3.12v2.92h-3.12v-2.92zm3.12 6.67h-3.12v-2.92h3.12v2.92zM8.9 14.58h3.14v2.92H8.9v-2.92zm0-3.75h3.14v2.92H8.9v-2.92zm-4 0H8v2.92H4.9v-2.92zm0 3.75H8v2.92H4.9v-2.92zM8 21.25H4.9v-2.92H8v2.92zm4.02 0H8.9v-2.92h3.14v2.92zm4 0h-3.1v-2.92h3.1v2.92zm4.03 0h-3.12v-2.92h3.12v2.92zm0-3.75h-3.12v-2.92h3.12v2.92zm0-6.67v2.92h-3.12v-2.92h3.12z"/>
            </g>
        </symbol>
        <symbol id="calendar-o">
            <title>Calendar Outline</title>
            <g fill="#000" fill-rule="evenodd">
                <path d="M19.64 1.33h-2.5v-1c0-.18-.16-.33-.35-.33h-2.5c-.2 0-.37.15-.37.33v1H6.07v-1C6.07.15 5.9 0 5.7 0H3.2c-.18 0-.34.15-.34.33v1H.36c-.2 0-.36.15-.36.34v18c0 .18.16.33.36.33h19.28c.2 0 .36-.15.36-.33v-18c0-.2-.16-.34-.36-.34zm-5-.66h1.8v2h-1.8v-2zM3.57.67h1.8v2h-1.8v-2zM.7 2h2.16v1c0 .18.16.33.35.33h2.5c.2 0 .37-.15.37-.33V2h7.86v1c0 .18.16.33.36.33h2.5c.18 0 .34-.15.34-.33V2h2.15v3H.7V2zm0 17.33V5.67h18.6v13.66H.7z"/>
                <path d="M12.86 7.67H3.2v9.66H16.8V7.67H12.86zm-2.5.66h2.5v2.34h-2.5V8.33zm2.5 5.34h-2.5v-2.34h2.5v2.34zm-5.72-2.34h2.5v2.34h-2.5v-2.34zm0-3h2.5v2.34h-2.5V8.33zm-3.2 0h2.5v2.34h-2.5V8.33zm0 3h2.5v2.34h-2.5v-2.34zm2.5 5.34h-2.5v-2.34h2.5v2.34zm3.2 0h-2.5v-2.34h2.5v2.34zm3.22 0h-2.5v-2.34h2.5v2.34zm3.2 0h-2.5v-2.34h2.5v2.34zm0-3h-2.5v-2.34h2.5v2.34zm0-5.34v2.34h-2.5V8.33h2.5z"/>
            </g>
        </symbol>
        <symbol id="calendar-checkmark">
            <title>Calendar Checkmark</title>
            <g fill="#000" fill-opacity=".8" fill-rule="evenodd">
                <path d="M52.05 41.12l-5.7 8.17-4-3.3c-.45-.36-1.1-.3-1.45.14-.35.44-.3 1.08.14 1.43l4.88 4c.18.15.4.23.64.23h.14c.28-.05.53-.2.7-.43l6.3-9.1c.33-.44.2-1.08-.25-1.4-.45-.33-1.1-.22-1.4.25z"/>
                <path d="M52.88 35.06V5.08c0-.55-.46-1-1.02-1h-5.08V1c0-.56-.46-1.02-1.02-1.02h-7.12c-.56 0-1 .46-1 1.02v3.05h-22.4V1.02c0-.56-.44-1.02-1-1.02H7.12C6.56 0 6.1.46 6.1 1.02v3.05H1.02c-.56 0-1.02.46-1.02 1v51.88c0 .56.46 1.02 1.02 1.02h38.74C41.8 59.25 44.2 60 46.78 60 54.08 60 60 54.07 60 46.78c0-5.1-2.9-9.5-7.12-11.72zM39.66 2.03h5.1V8.14h-5.1V2.03zm-31.52 0h5.08V8.14H8.14V2.03zM2.04 6.1H6.1v3.05c0 .56.46 1.02 1.02 1.02h7.12c.56 0 1-.46 1-1.02V6.1h22.4v3.05c0 .56.44 1.02 1 1.02h7.12c.56 0 1.02-.46 1.02-1.02V6.1h4.07v8.14H2.03V6.1zm0 49.83V16.27h48.8V34.2l-.6-.16-.57-.15c-.18-.05-.35-.08-.52-.1-.24-.05-.5-.1-.74-.12l-.4-.05c-.4-.05-.8-.07-1.22-.07-.35 0-.68.03-1.02.05V21.38H7.13V50.85h27.1l.1.26c.1.26.18.5.3.74.05.14.1.27.17.4.12.25.23.52.37.76l.18.33c.15.26.3.52.47.77.05.1.12.18.18.28l.56.75c.07.1.15.17.22.26.16.18.3.36.48.54H2.04zM40.98 34.9c-.12.06-.23.1-.33.17-.2.1-.38.22-.56.32l-.47.28c-.16.1-.3.22-.47.32l-.52.4-.4.3-.52.48c-.12.1-.24.2-.35.34l-.53.57-.22.24v-5.8h7.12v1.4h-.05c-.96.23-1.85.55-2.7.97zm-6.86 8.02c-.04.1-.06.23-.1.35-.07.3-.16.6-.22.9-.05.23-.07.47-.1.7-.04.2-.08.4-.1.6-.04.42-.06.86-.06 1.3 0 .38.02.75.05 1.12.02.06.02.13.02.2l.07.48c0 .08 0 .15.02.23h-6.26v-7.1h7.12c0 .03-.02.06-.03.08-.16.37-.3.75-.4 1.14zm-25-1.23h7.13v7.1H9.15v-7.1zm0-9.16h7.13v7.12H9.15v-7.12zm34.6-2.03H36.6v-7.1h7.13v7.1zm-9.16 0h-7.12v-7.1h7.12v7.1zm0 9.16h-7.12v-7.12h7.12v7.12zM18.3 32.54h7.12v7.12h-7.1v-7.12zm7.12-2.03h-7.1v-7.1h7.1v7.1zm-9.15 0H9.15v-7.1h7.12v7.1zm2.04 11.2h7.12v7.1h-7.1v-7.1zM46.8 57.96c-2.3 0-4.43-.7-6.2-1.9-.36-.23-.7-.48-1-.75l-.32-.3c-.2-.18-.4-.36-.58-.55-.12-.12-.23-.26-.34-.4-.16-.18-.33-.38-.48-.58l-.3-.4c-.22-.32-.43-.66-.6-1l-.14-.25c-.15-.3-.28-.6-.4-.88l-.15-.4c-.1-.27-.18-.55-.25-.82l-.05-.2c-.1-.44-.2-.9-.26-1.33v-.1c-.08-.45-.1-.9-.1-1.34 0-.4 0-.76.05-1.15v-.1c.06-.34.1-.68.18-1.03l.02-.1c.07-.34.16-.67.26-1l.05-.12c.1-.3.23-.63.36-.94.13-.3.27-.58.43-.86l.1-.16c.04-.07.1-.14.13-.23.17-.3.37-.6.57-.87l.15-.2c.18-.25.38-.48.58-.7.07-.1.14-.16.2-.24l.63-.62.22-.2c.25-.22.52-.42.78-.6l.12-.1c1.33-.92 2.85-1.55 4.5-1.82.62-.1 1.23-.17 1.86-.17.4 0 .8 0 1.18.05l.18.03c.34.05.67.1 1 .17l.12.03c.35.08.7.17 1.04.28l.07.02c.35.13.7.26 1.04.42 3.87 1.76 6.57 5.65 6.57 10.17 0 6.18-5.02 11.2-11.2 11.2z"/>
            </g>
        </symbol>

        <symbol id="calendar-clock">
            <title>Calendar Clock</title>
            <g fill="#000" fill-opacity=".8" fill-rule="evenodd">
                <path d="M40.84 29.3c-5.88 0-10.66 4.65-10.66 10.36 0 5.7 4.78 10.34 10.66 10.34 5.87 0 10.65-4.64 10.65-10.34S46.7 29.3 40.83 29.3zm0 18.98c-4.9 0-8.88-3.87-8.88-8.62 0-4.75 3.98-8.63 8.88-8.63s8.87 3.88 8.87 8.63c0 4.75-3.97 8.62-8.86 8.62z"/>
                <path d="M46.16 38.8h-4.44v-4.32c0-.47-.4-.86-.88-.86-.5 0-.9.4-.9.86v5.18c0 .47.4.86.9.86h5.32c.5 0 .9-.4.9-.86 0-.48-.4-.87-.9-.87zM23.97 18.1H6.2V43.1H24V27.6h15.98v-9.5H23.97zm8 1.73h6.2v6.03h-6.2v-6.03zm-16 0h6.22v6.03h-6.22v-6.03zm-7.98 0h6.2v6.03H8v-6.03zm0 7.76h6.2v6.02H8V27.6zm6.2 13.78H8v-6.04h6.2v6.04zm8 0h-6.22v-6.04h6.2v6.04zm0-7.76h-6.22V27.6h6.2v6.02zm7.98-7.76h-6.2v-6.03h6.2v6.03z"/>
                <path d="M29.3 47.4H1.78V13.8h42.6V25c0 .47.4.86.9.86.48 0 .88-.4.88-.86V4.3c0-.46-.4-.85-.9-.85h-4.42V.85c0-.46-.4-.85-.9-.85h-6.2c-.5 0-.9.4-.9.86v2.6H13.33V.85c0-.47-.4-.86-.9-.86h-6.2c-.5 0-.9.4-.9.86v2.6H.9c-.5 0-.9.38-.9.85V48.3c0 .47.4.86.9.86h28.4c.48 0 .88-.4.88-.86 0-.48-.4-.87-.88-.87zm5.32-45.68h4.44V6.9h-4.44V1.72zm-27.52 0h4.44V6.9H7.1V1.72zM1.78 5.17h3.55v2.6c0 .46.4.85.88.85h6.23c.5 0 .9-.4.9-.86v-2.6h19.52v2.6c0 .47.4.86.88.86h6.22c.5 0 .9-.4.9-.86v-2.6h3.54v6.9H1.77v-6.9z"/>
            </g>
        </symbol>
        <symbol id="calendar-clock-2">
            <title>Calendar</title>
            <g fill="none" fill-rule="evenodd">
                <circle cx="20" cy="20" r="20" fill="#00A551"/>
                <g fill="#FFF">
                    <path d="M16.56 18.23h2.02v2.02h-2.02zM16.56 21.33h2.02v2.02h-2.02zM16.56 24.43h2.02v2.02h-2.02zM12.93 21.33h2.02v2.02h-2.02zM12.93 24.43h2.02v2.02h-2.02zM15.8 12.3c0 .8-.64 1.45-1.43 1.45-.8 0-1.44-.65-1.44-1.44v-1.34c0-.8.64-1.44 1.44-1.44.8 0 1.44.65 1.44 1.44v1.35zM25.63 12.3c0 .8-.64 1.45-1.44 1.45-.8 0-1.45-.65-1.45-1.44v-1.34c0-.8.65-1.44 1.44-1.44.8 0 1.43.65 1.43 1.44v1.35zM25.04 30.48c-2.97 0-5.38-2.42-5.38-5.4 0-2.96 2.4-5.38 5.38-5.38 2.96 0 5.38 2.42 5.38 5.4 0 2.96-2.42 5.38-5.38 5.38zm0-9.44c-2.23 0-4.04 1.82-4.04 4.05 0 2.22 1.8 4.04 4.04 4.04 2.23 0 4.04-1.82 4.04-4.05 0-2.24-1.8-4.06-4.04-4.06z"/>
                    <path d="M25.1 25.7c-.23.12-.5.03-.6-.2-.12-.22-.04-.5.2-.6l2.88-1.46c.22-.1.5-.02.6.2.12.22.03.5-.2.6l-2.9 1.46z"/>
                    <path d="M24.26 25.22c.03-.4.36-.67.75-.64.4.03.67.36.64.75-.02.38-.36.66-.74.63-.38-.03-.67-.36-.64-.74zM25.04 18.9c.27 0 .53.03.8.06v-.73H23.8v.8c.4-.08.82-.12 1.24-.12zM22.2 19.6v-1.37h-2v2.02h1c.32-.25.65-.46 1-.65z"/>
                    <path d="M19.88 28.47c-.13-.2-.24-.4-.34-.6h-8.48V16.8H27.5v2.62c.24.1.48.23.7.37.04 0 .1.04.13.07.22.14.44.3.65.46v-8.3H26.4v.28c0 1.22-1 2.2-2.2 2.2-1.22 0-2.2-.98-2.2-2.2v-.27h-5.43v.28c0 1.22-1 2.2-2.2 2.2-1.22 0-2.2-.98-2.2-2.2v-.27h-2.6v17H20.3c-.16-.18-.3-.36-.42-.56z"/>
                </g>
            </g>
        </symbol>
        <symbol id="calendar-exclamation">
            <title>Calendar Exclamation</title>
            <g fill="none" fill-rule="evenodd">
                <g fill="#000" fill-opacity=".8">
                    <path d="M34.2 25.3c-4.9 0-8.9 4-8.9 8.9 0 4.94 4 8.94 8.9 8.94 4.94 0 8.94-4 8.94-8.93 0-4.9-4-8.9-8.93-8.9zm0 16.35c-4.1 0-7.43-3.34-7.43-7.44 0-4.1 3.34-7.43 7.44-7.43 4.1 0 7.45 3.34 7.45 7.44 0 4.1-3.34 7.45-7.44 7.45z"/>
                    <path d="M38.67 33.47h-3.7v-3.72c0-.4-.35-.74-.76-.74-.4 0-.73.34-.73.75v4.46c0 .42.33.76.74.76h4.47c.4 0 .75-.34.75-.75 0-.4-.34-.73-.75-.73zM20.08 15.62H5.2V37.2H20.1V23.8h13.4v-8.18H20.07zm6.7 1.5h5.2v5.2h-5.2v-5.2zm-13.4 0h5.2v5.2h-5.2v-5.2zm-6.7 0h5.22v5.2H6.7v-5.2zm0 6.68h5.22V29H6.7v-5.2zm5.22 11.9H6.7v-5.2h5.2v5.2zm6.7 0h-5.2v-5.2h5.2v5.2zm0-6.7h-5.2v-5.2h5.2V29zm6.7-6.7h-5.22v-5.2h5.2v5.2z"/>
                    <path d="M24.54 40.9H1.5v-29h35.7v9.67c0 .4.32.74.73.74.4 0 .74-.32.74-.73V3.72c0-.4-.33-.75-.74-.75H34.2V.74c0-.4-.32-.74-.73-.74h-5.2c-.42 0-.75.33-.75.74v2.23H11.16V.74c0-.4-.34-.74-.75-.74H5.2c-.4 0-.74.33-.74.74v2.23H.74c-.4 0-.74.34-.74.75v37.94c0 .4.33.73.74.73h23.8c.4 0 .75-.34.75-.75 0-.4-.35-.74-.76-.74zM29 1.5h3.72v4.45h-3.7V1.5zm-23.05 0h3.72v4.45H5.95V1.5zM1.5 4.45h2.96V6.7c0 .4.34.74.75.74h5.2c.42 0 .76-.34.76-.75V4.45h16.36V6.7c0 .4.33.74.74.74h5.2c.42 0 .75-.34.75-.75V4.45h3v5.95H1.5V4.47z"/>
                </g>
                <path fill="#FFF" d="M34.5 25.02c-5.23 0-9.48 4.25-9.48 9.5 0 5.23 4.25 9.48 9.5 9.48 5.23 0 9.48-4.25 9.48-9.5 0-5.23-4.25-9.48-9.5-9.48z"/>
                <path fill="#F44336" d="M34.5 25.02c5.25 0 9.5 4.25 9.5 9.5 0 5.23-4.25 9.48-9.5 9.48-5.23 0-9.48-4.25-9.48-9.5 0-5.23 4.25-9.48 9.5-9.48zm-.64 11.4h1.3l.73-7.12v-.32h-2.77v.32l.73 7.1zm-.34 3h1.98V37.4h-1.98v2.02z"/>
            </g>
        </symbol>
        <symbol id="caret-down">
            <title>Caret Down</title>
            <path fill="#FFF" fill-rule="evenodd" d="M7 10l7-10H0"/>
        </symbol>
        <symbol id="caret-left">
            <title>Caret Left</title>
            <path fill="#4A4A4A" fill-rule="evenodd" d="M.08 12.05L18.94 24.1V0"/>
        </symbol>
        <symbol id="check-circle-o">
            <title>
                Check Circle Open
            </title>
            <g fill="#00AA50" fill-rule="evenodd">
                <path d="M57.72 26.76l-23.9 23.9-10.6-10.6c-.73-.73-1.94-.73-2.68 0-.74.75-.74 1.96 0 2.7L32.48 54.7c.35.36.84.56 1.34.56.5 0 1-.2 1.35-.56L60.4 29.45c.76-.74.76-1.95 0-2.7-.73-.73-1.94-.73-2.68 0z"/>
                <path d="M40 0C18.32 0 0 18.32 0 40s18.32 40 40 40 40-18.32 40-40S61.68 0 40 0zm0 76.2C20.38 76.2 3.8 59.6 3.8 40 3.8 20.38 20.4 3.8 40 3.8 59.62 3.8 76.2 20.4 76.2 40c0 19.62-16.58 36.2-36.2 36.2z"/>
            </g>
        </symbol>
        <symbol id="check-circle">
            <title>Check Circle</title>
            <path fill="#54A89A" fill-rule="evenodd" d="M12 24C5.37 24 0 18.63 0 12S5.37 0 12 0s12 5.37 12 12-5.37 12-12 12zm4.34-17l-6.7 7.03-2-2-1-.97-1.97 1.96 1 .98 3 3 1.03 1 1-1.04 7.67-8.05.96-1L17.3 6l-.96 1z"/>
        </symbol>
        <symbol id="check">
            <title>Check</title>
            <path fill="#00ACDD" fill-rule="evenodd" d="M5.74 7.53l-1.88 1.8 5.03 4.8 11.3-10.2-1.9-1.8-9.42 8.4"/>
        </symbol>
        <symbol id="clipboard-hourglass">
            <title>Clipboard Hourglass</title>
            <g fill-opacity=".8" fill-rule="evenodd">
                <path d="M49.02 57.97h-.98v-2.4c0-3.6-1.8-6.87-4.74-8.8 2.93-1.9 4.74-5.18 4.74-8.78v-2.4h.98c.54 0 .98-.46.98-1.02s-.44-1.02-.98-1.02H31.37c-.54 0-.98.46-.98 1.02s.43 1 .97 1h.98V38c0 3.6 1.82 6.88 4.74 8.8-2.93 1.92-4.75 5.2-4.75 8.8v2.4h-.98c-.54 0-.98.44-.98 1s.43 1.02.97 1.02H49.02c.54 0 .98-.46.98-1.02s-.44-1-.98-1zM34.32 38v-2.4h11.76V38c0 3.37-2 6.4-5.1 7.76H39.4c-3.1-1.36-5.1-4.4-5.1-7.77zm0 17.57c0-3.38 1.98-6.4 5.1-7.77h1.57c3.1 1.36 5.1 4.4 5.1 7.77v2.4H34.3v-2.4zM6.7 18.3h12.74c.54 0 .98-.45.98-1 0-.57-.44-1.03-.98-1.03H6.7c-.54 0-.98.46-.98 1.02 0 .55.44 1 .98 1zM21.57 48.8c.54 0 .98-.44.98-1s-.44-1.02-.98-1.02H6.7c-.54 0-.98.46-.98 1.02s.44 1 .98 1h14.87zM35.13 22.37H6.7c-.54 0-.98.46-.98 1.02 0 .55.44 1 .98 1h28.43c.54 0 .98-.45.98-1 0-.57-.42-1.03-.97-1.03zM27.45 34.58H6.7c-.54 0-.98.45-.98 1 0 .57.44 1.03.98 1.03h20.75c.54 0 .98-.45.98-1 0-.57-.44-1.02-.98-1.02zM24.5 40.68H6.7c-.54 0-.98.46-.98 1 0 .57.44 1.03.98 1.03h17.8c.55 0 1-.45 1-1 0-.56-.45-1.02-1-1.02zM6.7 28.47c-.54 0-.98.46-.98 1.02 0 .55.44 1 .98 1h13.72c.54 0 .98-.45.98-1 0-.57-.44-1.03-.98-1.03H6.7zM35.13 28.47h-6.87c-.53 0-.98.46-.98 1.02 0 .55.45 1 .98 1h6.87c.54 0 .98-.45.98-1 0-.57-.42-1.03-.97-1.03zM23.66 28.77c-.2.2-.3.46-.3.72 0 .26.1.52.3.7.17.2.43.3.68.3.27 0 .52-.1.7-.3.2-.18.28-.44.28-.7 0-.27-.1-.54-.28-.73-.36-.38-1.02-.38-1.38 0z"/>
                <path d="M24.5 56.95H1.97V8.15h6.86v2.02c0 .56.44 1.02.98 1.02h22.55c.54 0 .98-.47.98-1.03V8.14h6.87v19.32c0 .56.44 1 .98 1s.98-.44.98-1V7.12c0-.56-.44-1.02-.98-1.02h-7.85V4.07c0-.56-.44-1.02-.98-1.02h-5.88V1.02c0-.56-.44-1.02-.98-1.02h-8.83c-.54 0-.98.46-.98 1.02v2.03H9.8c-.54 0-.98.46-.98 1.02V6.1H.98C.44 6.1 0 6.56 0 7.12v50.85c0 .56.44 1 .98 1H24.5c.55 0 1-.44 1-1s-.45-1.02-1-1.02zM17.66 2.03h6.86V6.1h-6.85V2.03zm-6.87 3.05h4.9v2.04c0 .56.45 1.02 1 1.02h8.8c.55 0 1-.46 1-1.02V5.08h4.9v4.07h-20.6V5.08z"/>
            </g>
        </symbol>
        <symbol id="close-circle-o">
            <title>Close Circle Open</title>
            <g fill="#F44336" fill-rule="evenodd">
                <path fill-rule="nonzero" d="M8.5 16.32c4.32 0 7.82-3.5 7.82-7.82S12.82.68 8.5.68.68 4.18.68 8.5s3.5 7.82 7.82 7.82zm0 .68C3.8 17 0 13.2 0 8.5S3.8 0 8.5 0 17 3.8 17 8.5 13.2 17 8.5 17z"/>
                <path d="M8.92 8.52l2.42-2.4-.6-.62-2.42 2.42-2.3-2.32-.62.6 2.32 2.32-2.22 2.22.6.6 2.22-2.2 2.3 2.3.62-.6-2.32-2.32z"/>
            </g>
        </symbol>
        <symbol id="close">
            <title>Close</title>
            <path fill="#000" fill-opacity=".8" fill-rule="evenodd" d="M13.77 1.36c.3-.3.3-.8 0-1.13-.32-.3-.82-.3-1.13 0L7 5.87 1.36.23c-.3-.3-.8-.3-1.13 0-.3.32-.3.82 0 1.13L5.87 7 .23 12.64c-.3.3-.3.8 0 1.13.32.3.82.3 1.13 0L7 8.13l5.64 5.64c.3.3.8.3 1.13 0 .3-.32.3-.82 0-1.13L8.13 7l5.64-5.64z"/>
        </symbol>
        <symbol id="dinner-tray">
            <title>Dinner Tray</title>
            <g fill="#000" fill-opacity=".8" fill-rule="evenodd">
                <path d="M29.9 15.92c-.18-.33-.52-.54-.9-.54h-.57C28.2 9.13 23.6 3.98 17.57 2.8l.02-.24C17.6 1.16 16.42 0 15 0c-1.43 0-2.6 1.15-2.6 2.56 0 .1.03.17.03.25C6.4 3.98 1.8 9.14 1.56 15.4H1.5c-.37 0-.7.2-.87.54-.17.34-.15.73.07 1.03l1.17 1.62c.65.9 1.7 1.43 2.8 1.43h21.17c1.1 0 2.16-.53 2.8-1.43l1.17-1.62c.23-.3.26-.7.1-1.03zM13.44 2.65v-.1c0-.83.7-1.52 1.55-1.52.85 0 1.55.7 1.55 1.53v.1h-.08c-.17-.03-.35-.04-.53-.06-.07 0-.14 0-.2-.02L15 2.56c-.25 0-.5 0-.74.02-.07 0-.13 0-.2.02-.18 0-.35.03-.53.05h-.08zm-.3 1.08l.83-.1h.17c.57-.04 1.13-.04 1.7 0h.17l.84.1c5.8.86 10.3 5.73 10.54 11.65H2.6c.24-5.92 4.74-10.8 10.54-11.65zM27.8 17.97c-.45.63-1.18 1-1.95 1H4.67c-.78 0-1.5-.37-1.96-1L1.6 16.4H28.92l-1.13 1.57z"/>
                <path d="M15 4.62c-.85 0-1.7.1-2.52.27-.28.05-.45.33-.4.6.06.24.28.4.5.4h.12c.75-.18 1.52-.26 2.3-.26.28 0 .52-.23.52-.5 0-.3-.23-.53-.53-.52zM9.4 6.1c-2.7 1.58-4.66 4.44-5.25 7.65-.05.28.13.55.4.6h.1c.25 0 .47-.17.5-.4C5.7 11 7.48 8.4 9.93 6.97c.24-.14.32-.45.18-.7-.15-.24-.46-.32-.7-.18z"/>
            </g>
        </symbol>
        <symbol id="dollar-symbol">
            <title>Dollar Symbol</title>
            <path fill="#000" fill-opacity=".8" fill-rule="evenodd" d="M10.37 2.76c-1.14-.83-2.35-1.36-3.8-1.54V0H4.78v1.18C2.24 1.4.52 2.88.52 5.05v.04c0 2.3 1.38 3.38 4.34 4.15v4c-1.32-.22-2.4-.83-3.57-1.78L0 13.33c1.36 1.1 3.02 1.8 4.8 2v2.04h1.76v-2c2.57-.23 4.32-1.7 4.32-3.92v-.04c0-2.17-1.32-3.38-4.4-4.15v-3.9c.93.2 1.86.67 2.75 1.32l1.14-1.9zm-1.9 8.8v.03c0 .96-.7 1.6-2 1.73v-3.7c1.57.48 2 1.02 2 1.92zM2.93 4.92V4.9c0-.88.65-1.55 1.95-1.67v3.6c-1.56-.5-1.95-1.05-1.95-1.9z"/>
        </symbol>
        <symbol id="download">
            <title>Download</title>
            <g fill="#607D8B" fill-rule="evenodd">
                <path d="M19.13 19.88H9.38c-.46 0-.68.3-.68.67 0 .38.3.68.68.68h9.67c.45 0 .68-.3.68-.68 0-.38-.23-.68-.6-.68zM9.9 12.15c-.3-.3-.68-.3-.97 0-.3.3-.3.67 0 .97l4.87 5.1c.07.08.07.08.15.08l.08.07c.07 0 .15.08.3.08.14 0 .22 0 .3-.07 0 0 .07 0 .07-.08.08 0 .08-.07.15-.07l4.88-5.1c.3-.3.3-.68 0-.98-.3-.3-.68-.3-.98 0l-3.68 3.9V1.12c0-.45-.3-.67-.67-.67-.38 0-.83.3-.83.68v14.84L9.9 12.15z"/>
                <path d="M28.43 2.17c0-.97-.75-1.72-1.73-1.72h-8.32c-.45 0-.68.3-.68.68 0 .37.3.67.68.67h8.32c.23 0 .38.15.38.37v25.65c0 .23-.15.38-.38.38H1.8c-.23 0-.38-.15-.38-.38V2.18c0-.23.16-.38.38-.38h8.32c.46 0 .68-.3.68-.68 0-.37-.3-.67-.68-.67H1.8C.82.45.07 1.2.07 2.17v25.65c0 .98.83 1.73 1.73 1.73h24.9c.98 0 1.73-.75 1.73-1.73V2.18z"/>
            </g>
        </symbol>
        <symbol id="egg-circle">
            <title>Egg Circle</title>
            <g fill="none" fill-rule="evenodd">
                <circle cx="25" cy="25" r="25" fill="#FF9800"/>
                <g fill="#FFF">
                    <path d="M39.86 20.35c0-3.58-2.92-6.25-6.5-6.5-2.47-.17-2.8.77-4.92.3-2.06-.44-2.34-4-7.16-4-4.1 0-7.43 3.3-7.43 7.42 0 1.45.66 2.24.12 4.14-.53 1.85-3.83 1.6-3.83 6.1 0 4.43 2.6 6.72 5.07 7.15 2.07.35 1.06 4.9 6.08 4.9 3.33 0 3.68-1.4 5.42-1.77 1.74-.38 2.44 1.78 5.73 1.78 4.1 0 7.43-3.32 7.43-7.43 0-3.7-1.78-4.18-1.78-6.23 0-2.05 1.78-2.44 1.78-5.85zM25.93 32.43c-3.6 0-6.5-2.9-6.5-6.5s2.9-6.5 6.5-6.5 6.5 2.9 6.5 6.5-2.9 6.5-6.5 6.5z"/>
                    <path d="M25.93 21.28c-1.76 0-3.28 1-4.07 2.44.66-.36 1.4-.58 2.2-.58 2.58 0 4.66 2.08 4.66 4.65 0 .8-.22 1.54-.58 2.2 1.44-.8 2.43-2.3 2.43-4.07 0-2.57-2.07-4.65-4.64-4.65z"/>
                </g>
            </g>
        </symbol>
        <symbol id="envelope">
            <title>Envelope</title>
            <path fill-opacity=".8" fill-rule="evenodd" d="M1 0H0V15h20V0H1zm.4.7H18.8l-6.6 6.98v.02l-1.8 1.9c-.23.22-.57.22-.78.02L7.8 7.7v-.02L1.23.7h.18zm5.44 6.98L.67 13.9V1.2l6.17 6.48zm.47.5l1.85 1.94c.24.23.54.34.84.34.3 0 .6-.12.85-.35L12.7 8.2l6.07 6.12H1.23L7.3 8.18zm5.86-.5l6.17-6.5V13.9l-6.17-6.22z"/>
        </symbol>
        <symbol id="exclamation-circle">
            <title>Exclamation Circle</title>
            <path fill="#F44336" fill-rule="evenodd" d="M25 0c13.8 0 25 11.2 25 25S38.8 50 25 50 0 38.8 0 25 11.2 0 25 0zm-1.72 30h3.44l1.93-18.73v-.85h-7.3v.85L23.28 30zm-.88 7.93h5.2V32.6h-5.2v5.33z"/>
        </symbol>
        <symbol id="file-image">
            <title>File Image</title>
            <g fill="#607D8B" fill-rule="evenodd">
                <path d="M29.48 0H.52C.22 0 0 .25 0 .57v24.86c0 .32.23.57.52.57h28.96c.3 0 .52-.25.52-.57V.57c0-.32-.23-.57-.52-.57zm-.5 24.87H1.02V1.13h27.94v23.74z"/>
                <path d="M8.28 12.5c1.58 0 2.88-1.4 2.88-3.13 0-1.74-1.3-3.15-2.88-3.15-1.6 0-2.9 1.4-2.9 3.15 0 1.73 1.3 3.14 2.9 3.14zm0-5.15c1 0 1.84.9 1.84 2.02 0 1.1-.83 2-1.84 2-1.02 0-1.85-.9-1.85-2 0-1.12.83-2.02 1.85-2.02zM3.62 22.6c.12 0 .24-.04.34-.13l8.44-8.12 5.33 5.82c.2.22.52.22.73 0 .2-.22.2-.57 0-.8l-2.5-2.7 4.76-5.7 5.82 5.84c.2.22.54.2.73-.02.2-.24.18-.6-.03-.8l-6.2-6.22c-.1-.1-.25-.15-.38-.15-.14.02-.27.1-.36.2l-5.06 6.07-2.45-2.68c-.2-.22-.52-.23-.72-.04l-8.8 8.46c-.2.2-.24.56-.05.8.1.13.25.2.4.2z"/>
            </g>
        </symbol>
        <symbol id="flag">
            <title>Flag</title>
            <path fill="#00ACDD" fill-rule="evenodd" d="M20 0H0v20h2v-8h18l-6-6"/>
        </symbol>
        <symbol id="fork-knife-circle">
            <title>Fork Knife Circle</title>
            <g fill="none" fill-rule="evenodd">
                <path fill="#FF9800" d="M25 50c13.8 0 25-11.2 25-25S38.8 0 25 0 0 11.2 0 25s11.2 25 25 25z"/>
                <g fill="#FFF">
                    <path d="M30.4 28.32l5.86-5.83c4.2-4.18 4.36-8.02 4.13-9.87h-.02c0-.13-.07-.26-.17-.36-.24-.24-.64-.24-.88 0l-1.7 1.7-21.57 21.45v.02c-.7.72-.7 1.9 0 2.6.74.73 1.9.73 2.64 0l.45-.57c.82-1.05 4.95-7.03 5.58-7.96.26-.37.5-.6.73-.7.33-.1.6.06.6.06 1.36.8 3.16.64 4.33-.54zM20.5 26.23c1.2-.48 2.02-.06 2.54.4l1.7-1.68c-.47-.5-.9-1.34-.42-2.52.68-1.66 1.23-2.7-1.1-5.27-2.36-2.58-6.02-4.97-7.74-5.46-.4-.1-.8-.2-1.08-.17h-.06c-.1.02-.16.05-.23.1-.14.17-.14.42 0 .58l5.85 5.82c.3.3.3.78 0 1.08-.3.3-.78.3-1.08 0l-.7-.68-1.52-1.52c-1.14-1.14-1.87-1.86-2.6-2.45C12.34 13 11.66 13 11.66 13s-.27-.06-.47.15c-.2.2-.16.46-.16.46s.02.7 1.46 2.42c.6.7 1.32 1.44 2.46 2.58l1.53 1.5.7.7c.3.3.3.78 0 1.08-.3.3-.8.3-1.1 0l-5.84-5.8c-.16-.17-.4-.17-.57 0-.06.06-.1.12-.1.22v.05c-.03.3.05.7.16 1.08.5 1.7 2.9 5.36 5.5 7.7 2.58 2.32 3.62 1.77 5.28 1.1z"/>
                    <path d="M30.57 29.85c-.8.52-1.72.8-2.7.8-.56 0-1.13-.1-1.66-.3L33 38.4c.98 1 2.58 1 3.57 0 1-.97 1-2.56 0-3.54l-6-5z"/>
                </g>
            </g>
        </symbol>
        <symbol id="fork-knife-circle-o">
            <title>Fork Knife Circle Open</title>
            <g fill="none" fill-rule="evenodd">
                <path stroke="#000" stroke-opacity=".8" d="M15 29.5c8 0 14.5-6.5 14.5-14.5S23 .5 15 .5.5 7 .5 15 7 29.5 15 29.5z"/>
                <g fill="#000" fill-opacity=".8">
                    <path d="M18.24 17l3.5-3.5c2.53-2.5 2.63-4.8 2.5-5.92-.02-.08-.05-.16-.12-.22-.14-.14-.38-.14-.53 0l-1.03 1.02L9.63 21.25c-.43.45-.43 1.15 0 1.58.44.43 1.15.43 1.58 0l.3-.35c.48-.63 2.96-4.2 3.34-4.77.15-.22.3-.37.44-.4.2-.1.35 0 .35 0 .82.5 1.9.4 2.6-.3zM12.3 15.74c.7-.3 1.2-.04 1.53.24l1-1c-.27-.32-.53-.82-.24-1.52.4-1 .73-1.62-.68-3.16-1.4-1.55-3.6-3-4.63-3.28-.24-.07-.48-.1-.66-.1H8.6c-.05 0-.1.03-.13.07-.1.08-.1.23 0 .32l3.5 3.5c.18.17.18.46 0 .64s-.47.18-.65 0l-.4-.4-.93-.92c-.7-.68-1.13-1.12-1.56-1.47C7.4 7.8 6.98 7.8 6.98 7.8s-.15-.03-.27.1c-.12.1-.1.27-.1.27s.02.4.9 1.44c.35.44.78.88 1.47 1.56l.9.9.42.42c.17.18.17.47 0 .65-.2.18-.48.18-.66 0l-3.5-3.5c-.1-.08-.25-.08-.34 0-.04.05-.06.1-.07.15v.03c0 .2.04.43.1.66.3 1.03 1.74 3.2 3.3 4.6 1.55 1.4 2.17 1.08 3.17.68z"/>
                    <path d="M18.34 17.9c-.47.32-1.03.5-1.6.5-.36 0-.7-.07-1-.2l4.06 4.85c.6.6 1.55.6 2.14 0 .6-.6.6-1.55 0-2.14l-3.6-3z"/>
                </g>
            </g>
        </symbol>
        <symbol id="gear-o">
            <title>Settings</title>
            <g fill="#FFF" fill-rule="evenodd">
                <path d="M24.66 9.93h-2.43c-.4 0-.7-.22-.86-.57-.15-.35-.07-.73.2-1l1.72-1.7c.24-.24.38-.56.38-.92 0-.35-.14-.68-.4-.93L21.1 2.67c-.5-.5-1.4-.5-1.9 0l-1.72 1.7c-.22.2-.48.26-.65.26-.24 0-.48-.1-.65-.26-.14-.1-.3-.33-.3-.66V1.3c0-.7-.6-1.3-1.33-1.3h-3.1c-.74 0-1.34.6-1.34 1.3v2.4c0 .58-.47.92-.93.92-.17 0-.43-.04-.65-.27L6.8 2.67c-.5-.5-1.4-.5-1.9 0L2.73 4.82c-.26.25-.4.57-.4.93 0 .35.15.68.4.93l1.7 1.7c.3.26.37.63.22.98-.15.36-.48.57-.87.57H1.34c-.74 0-1.34.6-1.34 1.3v3.06c0 .7.6 1.3 1.34 1.3h2.43c.4 0 .7.2.86.57.15.35.07.73-.2 1L2.7 18.84c-.24.25-.38.58-.38.93 0 .35.14.68.4.93l2.18 2.17c.5.5 1.4.5 1.9 0l1.7-1.7c.24-.2.5-.26.66-.26.46 0 .95.35.95.93v2.4c0 .7.6 1.3 1.34 1.3h3.1c.74 0 1.34-.6 1.34-1.3v-2.4c0-.58.5-.92.95-.92.17 0 .42.06.65.28l1.72 1.7c.5.48 1.38.48 1.9 0l2.18-2.17c.25-.24.4-.56.4-.92 0-.35-.15-.68-.4-.93l-1.72-1.7c-.27-.25-.35-.63-.2-.98.15-.36.47-.57.86-.57h2.43c.74 0 1.34-.6 1.34-1.3v-3.06c0-.72-.6-1.3-1.34-1.3zm.38 4.36c0 .2-.17.35-.38.35h-2.43c-.78 0-1.45.44-1.75 1.15-.3.7-.14 1.5.4 2.03l1.73 1.7c.08.06.12.15.12.25s-.04.2-.1.26l-2.2 2.15c-.14.13-.4.13-.53 0l-1.73-1.7c-.36-.35-.84-.55-1.33-.55-1.05 0-1.9.84-1.9 1.87v2.4c0 .2-.18.36-.38.36h-3.1c-.22 0-.4-.16-.4-.37v-2.37c0-1.03-.84-1.87-1.9-1.87-.5 0-.97.2-1.32.55l-1.72 1.7c-.14.14-.4.13-.53 0l-2.2-2.16c-.08-.07-.12-.16-.12-.26s.04-.2.1-.26l1.73-1.68c.57-.55.73-1.32.42-2.03-.3-.7-.97-1.15-1.75-1.15H1.34c-.2 0-.38-.16-.38-.36v-3.06c0-.2.17-.37.38-.37h2.43c.78 0 1.45-.44 1.75-1.15.3-.7.14-1.5-.4-2.02L3.38 6c-.08-.07-.12-.16-.12-.26s.04-.2.1-.26l2.2-2.15c.14-.13.4-.14.53 0l1.73 1.7c.36.34.84.54 1.34.54 1.05 0 1.9-.84 1.9-1.87V1.3c0-.2.17-.35.38-.35h3.1c.2 0 .38.16.38.36v2.4c0 .53.2 1 .6 1.36.34.32.82.5 1.3.5.5 0 .98-.2 1.34-.54l1.72-1.7c.13-.12.38-.12.5 0l2.2 2.16c.08.07.12.16.12.26s-.04.2-.1.26l-1.73 1.7c-.57.53-.73 1.3-.42 2.02.3.7.97 1.15 1.75 1.15h2.43c.2 0 .38.16.38.37v3.05z"/>
                <path d="M13 8.5c-2.4 0-4.33 1.92-4.33 4.26 0 2.35 1.94 4.26 4.33 4.26 2.4 0 4.33-1.9 4.33-4.26 0-2.34-1.94-4.25-4.33-4.25zm0 7.57c-1.86 0-3.37-1.48-3.37-3.3 0-1.83 1.5-3.32 3.37-3.32 1.86 0 3.37 1.5 3.37 3.3 0 1.84-1.5 3.32-3.37 3.32z"/>
            </g>
        </symbol>
        <symbol id="hourglass-circle-o">
            <title>Hourglass Circle Open</title>
            <g fill-opacity=".8" fill-rule="evenodd" opacity=".7">
                <path fill-rule="nonzero" d="M22 .3C10.04.3.3 10.05.3 22c0 11.96 9.74 21.7 21.7 21.7 11.96 0 21.7-9.74 21.7-21.7C43.7 10.04 33.95.3 22 .3zm0 .62C33.62.92 43.08 10.38 43.08 22c0 11.62-9.46 21.08-21.08 21.08C10.38 43.08.92 33.62.92 22 .92 10.38 10.38.92 22 .92z"/>
                <path d="M30.8 33.4h-1.1V31.8h-1.83V27.6c0-1.1-.5-2.1-1.32-2.72L22.65 22l3.9-2.88c.83-.6 1.32-1.63 1.32-2.73V12.2h1.83V10.6h1.1c.2 0 .37-.2.37-.4 0-.24-.17-.42-.37-.42H13.2c-.2 0-.37.18-.37.4 0 .23.17.4.37.4h1.1v1.64h1.83v4.17c0 1.1.5 2.1 1.32 2.72l3.9 2.88-3.9 2.88c-.83.6-1.32 1.63-1.32 2.73v4.18H14.3v1.63h-1.1c-.2 0-.37.2-.37.4 0 .24.17.42.37.42h17.6c.2 0 .37-.18.37-.4 0-.23-.17-.4-.37-.4zm-15.77-22v-.8h13.94v.8H15.03zm2.83 7.04c-.62-.46-1-1.23-1-2.05V12.2h10.27v4.17c0 .8-.37 1.58-1 2.04L22 21.5l-4.14-3.06zm-1 9.17c0-.8.38-1.58 1-2.04L22 22.5l4.14 3.06c.62.46 1 1.22 1 2.05v4.18H16.86V27.6zm-1.83 5h13.94v.8H15.03v-.8z"/>
                <path d="M18.67 17.1c-.2-.17-.34-.43-.34-.7v-.92c0-.22-.16-.4-.36-.4-.2 0-.37.18-.37.4v.9c0 .56.25 1.07.66 1.38l1.7 1.26c.07.05.14.07.2.07.12 0 .24-.07.3-.2.12-.18.08-.43-.1-.56l-1.7-1.25zM25.74 26.6l-1.7-1.27c-.17-.13-.4-.07-.5.1-.13.2-.08.45.1.58l1.7 1.27c.2.15.33.4.33.7v.9c0 .22.16.4.36.4.2 0 .37-.18.37-.4v-.9c0-.56-.25-1.08-.66-1.38z"/>
            </g>
        </symbol>
        <symbol id="list-ul">
            <title>List</title>
            <g fill="#FFF" fill-rule="evenodd">
                <path fill-rule="nonzero" d="M8 2.5c0 .28.22.5.5.5h12c.28 0 .5-.22.5-.5s-.22-.5-.5-.5h-12c-.28 0-.5.22-.5.5zm-1 0C7 1.67 7.66 1 8.5 1h12c.83 0 1.5.67 1.5 1.5S21.34 4 20.5 4h-12C7.66 4 7 3.33 7 2.5zM8 9.5c0 .28.22.5.5.5h12c.28 0 .5-.22.5-.5s-.22-.5-.5-.5h-12c-.28 0-.5.22-.5.5zm-1 0C7 8.67 7.66 8 8.5 8h12c.83 0 1.5.67 1.5 1.5s-.66 1.5-1.5 1.5h-12C7.66 11 7 10.33 7 9.5zM8 16.5c0 .28.22.5.5.5h12c.28 0 .5-.22.5-.5s-.22-.5-.5-.5h-12c-.28 0-.5.22-.5.5zm-1 0c0-.83.66-1.5 1.5-1.5h12c.83 0 1.5.67 1.5 1.5s-.66 1.5-1.5 1.5h-12c-.83 0-1.5-.67-1.5-1.5z"/>
                <path d="M4.4 5.5H1.1C.5 5.5 0 5 0 4.4V1.1C0 .5.5 0 1.1 0h3.3C5 0 5.5.5 5.5 1.1v3.3c0 .6-.5 1.1-1.1 1.1zM1.1 1.1v3.3h3.3V1.1H1.1zM4.4 12.5H1.1C.5 12.5 0 12 0 11.4V8.1C0 7.5.5 7 1.1 7h3.3c.6 0 1.1.5 1.1 1.1v3.3c0 .6-.5 1.1-1.1 1.1zM1.1 8.1v3.3h3.3V8.1H1.1zM4.4 19.5H1.1C.5 19.5 0 19 0 18.4v-3.3c0-.6.5-1.1 1.1-1.1h3.3c.6 0 1.1.5 1.1 1.1v3.3c0 .6-.5 1.1-1.1 1.1zm-3.3-4.4v3.3h3.3v-3.3H1.1z"/>
            </g>
        </symbol>
        <symbol id="lock">
            <title>Lock</title>
            <defs>
                <path id="a" d="M0 6.63c0-.56.44-1 1-1h9.6c.55 0 1 .45 1 1V14c0 .55-.44 1-1 1H1c-.55 0-1-.45-1-1V6.63zm4.62 5.3v.67c0 .55.44 1 1 1h.33c.55 0 1-.45 1-1v-.68c0-.56-.45-1-1-1h-.33c-.55 0-1 .45-1 1z"/>
            </defs>
            <g fill="none" fill-rule="evenodd">
                <use fill="#FFF" xlink:href="#a"/>
                <path stroke="#FFF" stroke-width="1.5" d="M.75 6.63V14c0 .13.12.25.26.25h9.6c.14 0 .25-.1.25-.25V6.63c0-.14-.12-.25-.26-.25H1c-.14 0-.25.1-.25.25zm3.12 5.3c0-.98.78-1.76 1.75-1.76h.33c.97 0 1.75.78 1.75 1.75v.68c0 .96-.8 1.74-1.75 1.74h-.33c-.97 0-1.75-.77-1.75-1.74v-.68z"/>
                <rect width="5.73" height="8.31" x="2.93" y="1" stroke="#FFF" stroke-width="2" rx="2.87"/>
            </g>
        </symbol>
        <symbol id="medical-bag">
            <title>Medical Bag</title>
            <g fill="none" fill-rule="evenodd">
                <circle cx="20" cy="20" r="20" fill="#00A551"/>
                <g fill="#FFF">
                    <path d="M30.45 16.45l1.75 7.8c.4 1.4-1.13 2.64-2.52 2.64h-.72c0-1.8-1.37-3.05-3.05-3.05-1.66 0-3.03 1.25-3.03 3.04H17.8c0-1.8-1.38-3.03-3.04-3.03-1.67 0-3.04 1.23-3.05 3.02h-1.03c-1.4 0-2.83-1.26-2.53-2.64L9.9 16.1c.23-1.45 1.12-2.23 2.52-2.23h15.5c1.4 0 2.35 1.25 2.53 2.58zm-8.95-1.6c-.36-.3-.6-.53-.75-.98H19.6c-.14.45-.4.7-.76.97-.4.3-.6.98-.57 1.34.06 1.53.54 4.78.54 4.78s.1.1.24 0l.1-2.52c0-.1.1-.2.2-.2s.17.1.17.2l.12 2.5s.14.12.27 0l.1-2.5c0-.1.1-.2.18-.2.1 0 .18.1.18.2l.1 2.5s.13.13.28 0l.12-2.5c0-.1.08-.2.17-.2.1 0 .18.1.18.2l.13 2.52s.1.1.2 0c0 0 .48-3.25.55-4.78.02-.36-.17-1.04-.58-1.34z"/>
                    <path d="M19.9 15.28c0-.06.04-.1.1-.1h.35c.06 0 .1.04.1.1v.54c0 .08.06.14.14.14h.53c.06 0 .1.04.1.1v.35c0 .07-.04.1-.1.1h-.54c-.1 0-.15.08-.15.15v.53c0 .06-.04.1-.1.1H20c-.06 0-.1-.04-.1-.1v-.53c0-.07-.07-.14-.14-.14h-.55c-.04 0-.1-.03-.1-.1v-.34c0-.06.06-.1.1-.1h.56c.07 0 .14-.06.14-.14v-.54zM15.4 12.7h.88c.35 0 .63-.3.63-.64v-.46c0-.17.08-.33.2-.45.12-.12.28-.2.45-.2h5.43c.1 0 .17.05.22.1l.17.17c.05.06.1.14.1.22v.62c0 .35.27.63.62.63h.86c.35 0 .63-.3.63-.64v-1.53c0-.16-.07-.33-.2-.45L24.33 9c-.12-.12-.28-.2-.45-.2H16.5c-.18 0-.34.08-.46.2l-1.1 1.1c-.12.12-.2.28-.18.45v1.5c0 .36.3.64.64.64M14.76 28.67c-1.08 0-1.95-.87-1.95-1.95 0-1.07.88-1.95 1.96-1.95 1.07 0 1.95.88 1.95 1.95 0 1.08-.87 1.95-1.94 1.95M25.9 28.67c-1.06 0-1.94-.87-1.94-1.95 0-1.07.88-1.95 1.95-1.95 1.08 0 1.96.88 1.96 1.95 0 1.08-.88 1.95-1.95 1.95"/>
                </g>
            </g>
        </symbol>
        <symbol id="notebook-pencil">
            <title>Notes</title>
            <g fill="#000" fill-opacity=".8" fill-rule="evenodd">
                <path d="M19.1 0h-1.2c-.5 0-.9.45-.9 1v15.76l1.2 2.33v.57c0 .18.14.33.3.33.16 0 .3-.15.3-.33v-.58l1.2-2.34V1c0-.55-.4-1-.9-1zm-1.5 3h1.8v.67h-1.8V3zm.9 15.33L17.82 17h1.36l-.68 1.33zm.9-2h-1.8v-12h1.8v12zm-1.8-14V1c0-.2.13-.33.3-.33h1.2c.17 0 .3.14.3.33v1.33h-1.8zM0 0v20h15V0H0zm.65 19.33V.67H2.6v18.66H.66zM14.35.67v18.66H3.25V.67h11.1z"/>
                <path d="M13 8V3H5v5h8zM5.67 3.7h6.66v3.6H5.67V3.7z"/>
            </g>
        </symbol>
        <symbol id="office">
            <title>Office</title>
            <g fill="none" fill-rule="evenodd">
                <path fill="#00ACDD" fill-rule="nonzero" d="M.52 0H0v25h25V0h-.52"/>
                <path fill="#00ACDD" d="M.52 1.04h23.96l-.52-.52v23.96l.52-.52H.52l.52.52V.52"/>
                <path fill="#FFF" fill-rule="nonzero" d="M3.3 3.4H7.2l-.52-.52V6.8l.52-.5H3.3l.53.5V2.9l-.52.52zm0-1.04h-.5v4.98H7.7V2.37H3.32zM10.56 3.4h3.88l-.53-.52V6.8l.54-.5h-3.88l.53.5V2.9l-.54.52zm0-1.04h-.52v4.98h4.92V2.37h-4.4zM17.82 3.4h3.87l-.53-.52V6.8l.52-.5H17.8l.52.5V2.9l-.52.52zm0-1.04h-.53v4.98H22.18V2.37h-4.38zM3.3 10.46H7.2l-.52-.52v3.93l.52-.52H3.3l.53.52V9.94l-.52.52zm0-1.04h-.5V14.4H7.7V9.4H3.32zM10.56 10.46h3.88l-.53-.52v3.93l.54-.52h-3.88l.53.52V9.94l-.54.52zm0-1.04h-.52V14.4h4.92V9.4h-4.4zM17.82 10.46h3.87l-.53-.52v3.93l.52-.52H17.8l.52.52V9.94l-.52.52zm0-1.04h-.53V14.4H22.18V9.4h-4.38zM3.3 17.52H7.2L6.66 17v3.93l.52-.52H3.3l.53.53V17l-.52.52zm0-1.04h-.5V21.45H7.7V16.48H3.32zM11.1 24.48V17l-.54.52h3.88L13.9 17v7.48h1.06v-8h-4.92v8M17.82 17.52h3.87l-.53-.52v3.93l.52-.52H17.8l.52.53V17l-.52.52zm0-1.04h-.53V21.45H22.18V16.48h-4.38z"/>
            </g>
        </symbol>
        <symbol id="office-o">
            <title>Office Open</title>
            <g fill-opacity=".7" fill-rule="nonzero">
                <path d="M3.3 3.4H7.2l-.52-.52V6.8l.52-.5H3.3l.53.5V2.9l-.52.52zm0-1.04h-.5v4.98H7.7V2.37H3.32zM10.56 3.4h3.88l-.53-.52V6.8l.54-.5h-3.88l.53.5V2.9l-.54.52zm0-1.04h-.52v4.98h4.92V2.37h-4.4zM17.82 3.4h3.87l-.53-.52V6.8l.52-.5H17.8l.52.5V2.9l-.52.52zm0-1.04h-.53v4.98H22.18V2.37h-4.38zM3.3 10.46H7.2l-.52-.52v3.93l.52-.52H3.3l.53.52V9.94l-.52.52zm0-1.04h-.5V14.4H7.7V9.4H3.32zM10.56 10.46h3.88l-.53-.52v3.93l.54-.52h-3.88l.53.52V9.94l-.54.52zm0-1.04h-.52V14.4h4.92V9.4h-4.4zM17.82 10.46h3.87l-.53-.52v3.93l.52-.52H17.8l.52.52V9.94l-.52.52zm0-1.04h-.53V14.4H22.18V9.4h-4.38zM3.3 17.52H7.2L6.66 17v3.93l.52-.52H3.3l.53.53V17l-.52.52zm0-1.04h-.5V21.45H7.7V16.48H3.32zM11.1 24.48V17l-.54.52h3.88L13.9 17v7.48h1.06v-8h-4.92v8M17.82 17.52h3.87l-.53-.52v3.93l.52-.52H17.8l.52.53V17l-.52.52zm0-1.04h-.53V21.45H22.18V16.48h-4.38z"/>
                <path d="M.52 1.04h23.96l-.52-.52v23.96l.52-.52H.52l.52.52V.52l-.52.52zM.52 0H0v25h25V0H.52z"/>
            </g>
        </symbol>
        <symbol id="phone-circle-o">
            <title>Phone Circle Open</title>
            <g fill-opacity=".8" fill-rule="evenodd">
                <path d="M14.7 3.97s-1.6-1.24-2.38-1.24c-.08 0-.15 0-.22.03-2.07.66-3.94 3.38-5.15 5.54-1.75 3.15-2.42 5.6-2 7.3.2.78 2.38 1.56 2.4 1.57.13.05.27.07.4.07.4 0 .75-.22.87-.55.07-.23.85-2.65.93-2.94.1-.32-.04-.7-.35-1.02-.16-.16-.63-.63-.9-.88.12-.33.42-1.05 1.07-2.2.64-1.18 1.1-1.8 1.32-2.08.34.1 1 .25 1.2.3.44.08.84 0 1.06-.25.2-.2 1.85-2.14 2-2.34.26-.33.23-.93-.26-1.33zm-.3.86c-.15.18-1.78 2.08-2 2.3 0 .02-.15.06-.34.02l-1.42-.34-.2-.04-.15.15c-.04.04-.62.65-1.58 2.4-.97 1.72-1.18 2.54-1.2 2.57l-.05.2.16.16s.83.8 1.03 1.02c.14.15.18.28.18.3-.08.3-.86 2.72-.92 2.9 0 0-.15.08-.33.02-.64-.22-1.8-.82-1.93-1.06-.47-1.86.8-4.7 1.93-6.74 1.14-2.05 2.88-4.6 4.72-5.2.34 0 1.46.72 1.9 1.08.18.14.17.28.17.3z"/>
                <path d="M10 0C4.5 0 0 4.5 0 10s4.5 10 10 10 10-4.5 10-10S15.5 0 10 0zm0 19.26C4.9 19.26.74 15.1.74 10 .74 4.9 4.9.74 10 .74c5.1 0 9.26 4.15 9.26 9.26 0 5.1-4.15 9.26-9.26 9.26z"/>
            </g>
        </symbol>
        <symbol id="pill-circle-o">
            <title>Pill Circle Open</title>
            <g fill-opacity=".8" fill-rule="evenodd" transform="translate(-36 -48)">
                <path fill-rule="nonzero" d="M65 98.75c13.12 0 23.75-10.63 23.75-23.75S78.12 51.25 65 51.25 41.25 61.88 41.25 75 51.88 98.75 65 98.75zm0 1.25c-13.8 0-25-11.2-25-25s11.2-25 25-25 25 11.2 25 25-11.2 25-25 25z"/>
                <path d="M75.74 64.26c-1.13-1.14-2.63-1.76-4.24-1.76-1.6 0-3.1.62-4.24 1.76l-13 13c-1.14 1.14-1.76 2.64-1.76 4.24s.62 3.1 1.76 4.24c1.13 1.14 2.63 1.76 4.24 1.76 1.6 0 3.1-.62 4.24-1.76l13-13c1.14-1.14 1.76-2.64 1.76-4.24s-.62-3.1-1.76-4.24zm-14 20.48c-.87.87-2.02 1.34-3.24 1.34-1.23 0-2.38-.47-3.24-1.34-.87-.86-1.34-2-1.34-3.24 0-1.22.47-2.37 1.34-3.24l6-6 6.48 6.48-6 6zm13-13l-6 6-6.48-6.48 6-6c.87-.87 2.02-1.34 3.24-1.34 1.23 0 2.38.47 3.24 1.34.87.86 1.35 2 1.35 3.24 0 1.22-.5 2.37-1.36 3.24z"/>
                <path d="M73.82 66.19v-.02c-.23-.23-.6-.23-.84 0-.23.23-.23.6 0 .84.82.8.82 2.14 0 2.95-.23.24-.23.6 0 .84s.6.24.84 0c1.27-1.27 1.27-3.34 0-4.62z"/>
            </g>
        </symbol>
        <symbol id="pill">
            <title>Pill</title>
            <g fill-opacity=".8" fill-rule="evenodd" transform="translate(-66 -278)">
                <path d="M88.6 281.4c-.9-.9-2.12-1.4-3.4-1.4-1.28 0-2.48.5-3.4 1.4l-10.4 10.4c-.9.92-1.4 2.12-1.4 3.4 0 1.28.5 2.5 1.4 3.4.9.9 2.12 1.4 3.4 1.4 1.28 0 2.48-.5 3.4-1.4l10.4-10.4c.9-.92 1.4-2.12 1.4-3.4 0-1.28-.5-2.5-1.4-3.4zm-11.2 16.4c-.7.7-1.62 1.07-2.6 1.07s-1.9-.38-2.6-1.08c-.7-.7-1.07-1.62-1.07-2.6s.38-1.9 1.08-2.6l4.8-4.8 5.2 5.2-4.8 4.8zm10.4-10.4l-4.8 4.8-5.2-5.2 4.8-4.8c.7-.7 1.62-1.07 2.6-1.07s1.9.38 2.6 1.08c.7.7 1.07 1.62 1.07 2.6s-.38 1.9-1.08 2.6z"/>
                <path d="M87.05 282.95c-.18-.2-.48-.2-.66 0-.2.18-.2.48 0 .66.64.67.64 1.73 0 2.38-.2.18-.2.48 0 .67.17.18.47.18.65 0 1.02-1.02 1.02-2.68 0-3.7z"/>
            </g>
        </symbol>
        <symbol id="plus-circle-o-lite">
            <title>Plus Circle Open Lite</title>
            <g fill-rule="evenodd" transform="translate(-532 -328)">
                <path fill-rule="nonzero" d="M544.5 346.32c4.32 0 7.82-3.5 7.82-7.82s-3.5-7.82-7.82-7.82-7.82 3.5-7.82 7.82 3.5 7.82 7.82 7.82zm0 .68c-4.7 0-8.5-3.8-8.5-8.5s3.8-8.5 8.5-8.5 8.5 3.8 8.5 8.5-3.8 8.5-8.5 8.5z"/>
                <path d="M544.85 338.14v-3.42H544v3.42h-3.28v.85H544v3.12h.85V339h3.27v-.86h-3.27z"/>
            </g>
        </symbol>
        <symbol id="plus">
            <title>Plus</title>
            <path fill="#FFF" fill-rule="evenodd" d="M11.25 8.75V0h-2.5v8.75H0v2.5h8.75V20h2.5v-8.75H20v-2.5h-8.75z"/>
        </symbol>
        <symbol id="print">
            <title>Print</title>
            <g fill="#607D8B" fill-rule="nonzero">
                <path d="M5.92 22.26h-3.4c-.7 0-1.3-.58-1.3-1.27V8.1c0-.7.6-1.27 1.3-1.27H26.8c.7 0 1.3.57 1.3 1.27V21c0 .7-.6 1.26-1.3 1.26h-3.37v1.23h3.36c1.38 0 2.52-1.14 2.52-2.5V8.1c0-1.37-1.14-2.5-2.53-2.5H2.5C1.14 5.63 0 6.75 0 8.13V21c0 1.36 1.14 2.48 2.52 2.48h3.4v-1.22z"/>
                <path d="M6.24 1.22h17.28l-.6-.6v4.9l.6-.6H6.24l.6.6V.63l-.6.6zm0-1.22h-.62V6.13H24.13V.02H6.25zM6.24 19.03h17.28l-.6-.6v10.53l.6-.6H6.24l.6.6V18.42l-.6.6zm0-1.22h-.62V29.57H24.13V17.83H6.25zM3.42 9.66h5.52l-.6-.6v3.12l.6-.6H3.42l.6.6V9.05l-.6.6zm0-1.22h-.6v4.34H9.53V8.46H3.43zM13.13 11.53h9.64V10.3h-9.64"/>
                <path d="M9.38 22.78H20.4v-1.22H9.38M9.38 25.6H20.4v-1.23H9.38"/>
            </g>
        </symbol>
        <symbol id="question-circle">
            <title>Question Circle</title>
            <path fill="#FFF" fill-rule="evenodd" d="M9 0C4.03 0 0 4.03 0 9s4.03 9 9 9 9-4.03 9-9-4.03-9-9-9zm1 16H8v-2h2v2zm1.18-7.37l-.78.83c-.63.65-1.03 1.2-1.03 2.54H7.63v-.45c0-1 .4-1.9 1.02-2.55l1.1-1.13c.3-.33.5-.77.5-1.27 0-1-.78-1.8-1.75-1.8s-1.75.8-1.75 1.8H5C5 4.6 6.57 3 8.5 3S12 4.6 12 6.6c0 .8-.3 1.5-.82 2.03z"/>
        </symbol>
        <symbol id="rx-circle">
            <title>Rx Circle</title>
            <g fill="none" fill-rule="evenodd">
                <path fill="#FF9800" d="M25 50c13.8 0 25-11.2 25-25S38.8 0 25 0 0 11.2 0 25s11.2 25 25 25z"/>
                <path fill="#FFF" d="M18.1 25.84h-3.7v7.5h-3.3V13.88h6.7c2.18 0 3.87.5 5.06 1.5 1.2 1 1.8 2.46 1.8 4.36 0 1.3-.32 2.4-.93 3.27-.6.88-1.47 1.55-2.56 2.02l4.26 8.1v.18H21.9l-3.8-7.5zm-3.7-2.7h3.4c1.1 0 1.98-.3 2.6-.87.64-.58.95-1.36.95-2.36 0-1.03-.3-1.84-.87-2.4-.58-.58-1.44-.87-2.6-.9h-3.47v6.53zm18.14.5l2.68-4.76h3.53L34.43 26l4.46 7.33h-3.5l-2.82-4.94-2.8 4.93h-3.53L30.7 26l-4.3-7.12h3.5l2.64 4.76z"/>
            </g>
        </symbol>
        <symbol id="search">
            <title>Search</title>
            <path fill="#000" fill-opacity=".8" fill-rule="evenodd" d="M13.6 11.34h-.86l-.3-.28c1.07-1.17 1.7-2.7 1.7-4.35C14.15 3 11 .03 7.1.03 3.18.02 0 3.02 0 6.72 0 10.4 3.2 13.4 7.1 13.4c1.76 0 3.36-.6 4.6-1.6l.3.27v.8l5.43 5.15 1.63-1.53-5.43-5.16zm-6.52 0c-2.7 0-4.9-2.07-4.9-4.63 0-2.55 2.2-4.62 4.9-4.62s4.9 2.07 4.9 4.63c0 2.57-2.2 4.64-4.9 4.64z" opacity=".8"/>
        </symbol>
        <symbol id="shopping-cart">
            <title>Shopping Cart</title>
            <path fill="#00ACDD" fill-rule="evenodd" stroke="#00ACDD" stroke-width=".5" d="M69.48 1h-4.56c-1.77 0-2.62 1.1-2.95 1.8-.34.7-.43 1.3-.43 1.7l-.67 4.07H4.3c-1.17 0-2.02.4-2.6 1.2-.52.7-.77 1.6-.68 2.58v.2l6.33 30.97c.34 1.7 1.6 3.58 3.88 3.58h42.8l-1.18 6.87c-.6-.2-1.18-.3-1.77-.3-3.55 0-6.5 2.9-7.18 6.87H21.1c-.75-3.88-3.62-6.87-7.17-6.87-4.05 0-7.34 3.9-7.34 8.67 0 4.78 3.28 8.66 7.33 8.66 3.55 0 6.5-2.9 7.18-6.87h22.72C44.58 68 47.45 71 51 71c4.04 0 7.34-3.88 7.34-8.66 0-2.7-1.02-5.08-2.62-6.67l2.36-13.65 5.66-31.46.84-5.78v-.2s.17-.1.34-.1h4.56c.84 0 1.52-.8 1.52-1.8C71 1.8 70.32 1 69.48 1zM13.93 67.5c-2.36 0-4.22-2.18-4.22-4.96 0-2.8 1.87-4.98 4.23-4.98 2.37 0 4.22 2.2 4.22 4.98 0 2.68-1.85 4.97-4.22 4.97zm37.06 0c-2.37 0-4.23-2.18-4.23-4.96 0-2.8 1.86-4.98 4.22-4.98 2.36 0 4.2 2.2 4.2 4.98 0 2.68-1.84 4.97-4.2 4.97zM4.3 12.26H60.3l-1.18 6.67H5.57l-1.35-6.57v-.1h.1zm6.1 30.47l-4.15-20.1h52.1L54.6 43.2c-.08.3-.42.3-.5.3h-42.8c-.5 0-.76-.3-.93-.8z"/>
        </symbol>
        <symbol id="sliders">
            <title>Sliders</title>
            <path fill="#FFF" fill-rule="nonzero" d="M1 3.37h12l-.5-.5v2.2l.5-.5H1l.5.5v-2.2l-.5.5zm0-1H.5v3.2h13v-3.2H1zm19.76 1H25l-.5-.5v2.2l.5-.5h-4.24l.5.5v-2.2l-.5.5zm0-1h-.5v3.2h5.24v-3.2h-4.74zM1 11.43h4.24l-.5-.5v2.2l.5-.5H1l.5.5v-2.2l-.5.5zm0-1H.5v3.2h5.24v-3.2H1zm12 1h12l-.5-.5v2.2l.5-.5H13l.5.5v-2.2l-.5.5zm0-1h-.5v3.2h13v-3.2H13zm7.76 9.8H25l-.5-.5v2.2l.5-.5h-4.24l.5.5v-2.2l-.5.5zm0-1h-.5v3.2h5.24v-3.2h-4.74zM1 20.23h12l-.5-.5v2.2l.5-.5H1l.5.5v-2.2l-.5.5zm0-1H.5v3.2h13v-3.2H1zm15.88 4.67c1.65 0 2.97-1.38 2.97-3.07 0-1.7-1.32-3.06-2.97-3.06-1.64 0-2.97 1.37-2.97 3.06 0 1.7 1.34 3.07 2.98 3.07zm0-1c-1.08 0-1.97-.92-1.97-2.07 0-1.14.9-2.06 1.98-2.06 1.1 0 1.97.92 1.97 2.06 0 1.15-.88 2.07-1.97 2.07zm-7.76-7.8c1.64 0 2.97-1.38 2.97-3.07 0-1.7-1.34-3.06-2.98-3.06-1.65 0-2.97 1.37-2.97 3.06 0 1.7 1.32 3.07 2.97 3.07zm0-1c-1.1 0-1.97-.92-1.97-2.07 0-1.14.88-2.06 1.97-2.06 1.08 0 1.97.92 1.97 2.06 0 1.15-.9 2.07-1.98 2.07zm7.76-7.07c1.65 0 2.97-1.37 2.97-3.06 0-1.7-1.32-3.07-2.97-3.07-1.64 0-2.97 1.38-2.97 3.07 0 1.7 1.34 3.06 2.98 3.06zm0-1c-1.08 0-1.97-.92-1.97-2.06 0-1.15.9-2.07 1.98-2.07 1.1 0 1.97.92 1.97 2.07 0 1.14-.88 2.06-1.97 2.06z"/>
        </symbol>
        <symbol id="sort">
            <title>Sort Arrows</title>
            <g fill="#FFF" fill-rule="evenodd">
            <path d="M4 0l4 5.1H0M4 13.6l4-5.1H0"/>
        </symbol>
        <symbol id="star">
            <title>Star</title>
            <path fill="#FFF800" fill-rule="evenodd" d="M18 29.85L6.88 36 9 22.98l-9-9.23 12.44-1.9L18 0l5.56 11.85L36 13.75l-9 9.23L29.12 36"/>
        </symbol>
        <symbol id="truck">
            <title>Truck</title>
            <path fill="#000" fill-opacity=".8" fill-rule="evenodd" d="M2.73 0C1.23 0 0 1.23 0 2.73v25.45c0 1.5 1.23 2.73 2.73 2.73h.45v7.28C3.18 39.18 4 40 5 40h3.64c1 0 1.8-.83 1.8-1.82v-3.63h19.1v3.63c0 1 .83 1.82 1.82 1.82H35c1 0 1.82-.83 1.82-1.82V30.9h.45c1.5 0 2.73-1.22 2.73-2.72V2.73C40 1.23 38.77 0 37.27 0H2.73zm0 1.82h34.54c.52 0 .9.4.9.9V28.2c0 .52-.38.9-.9.9h-.45V13.2c0-4.77-3.87-8.63-8.64-8.63H11.82c-4.77 0-8.64 3.86-8.64 8.63v15.9h-.45c-.52 0-.9-.38-.9-.9V2.73c0-.52.38-.9.9-.9zm9.1 4.54h16.35c3.8 0 6.82 3.03 6.82 6.82v19.55h-9.55V29.1c0-.42-.4-.92-.9-.92h-9.1c-.5 0-.9.5-.9.9v3.65H5V13.18c0-3.8 3.03-6.82 6.82-6.82zm1.35 2.73c-1.4 0-2.7.28-3.75 1.03-1.03.75-1.7 2-1.7 3.5v5.23c0 .56.62 1.03 1.16.87 3.24-.97 6.5-1.55 11.1-1.55s7.86.58 11.1 1.55c.55.16 1.17-.3 1.17-.87v-5.22c0-1.5-.67-2.76-1.7-3.5-1.04-.76-2.36-1.05-3.75-1.05H13.18zm0 1.8h13.64c1.12 0 2.07.26 2.68.7.6.45.95 1.02.95 2.04v4.07c-3.04-.8-6.2-1.34-10.45-1.34-4.24 0-7.4.53-10.45 1.35v-4.06c0-1.02.34-1.6.95-2.03.6-.44 1.56-.7 2.68-.7zM10 23.65c-1.75 0-3.18 1.43-3.18 3.18C6.82 28.56 8.25 30 10 30c1.75 0 3.18-1.44 3.18-3.18 0-1.75-1.43-3.18-3.18-3.18zm20 0c-1.75 0-3.18 1.43-3.18 3.18 0 1.74 1.43 3.18 3.18 3.18 1.75 0 3.18-1.44 3.18-3.18 0-1.75-1.43-3.18-3.18-3.18zm-20 1.8c.76 0 1.36.6 1.36 1.38 0 .76-.6 1.36-1.36 1.36-.76 0-1.36-.6-1.36-1.36 0-.77.6-1.37 1.36-1.37zm20 0c.76 0 1.36.6 1.36 1.38 0 .76-.6 1.36-1.36 1.36-.76 0-1.36-.6-1.36-1.36 0-.77.6-1.37 1.36-1.37zM16.36 30h7.28v2.73h-7.28V30zM5 34.55h3.64v3.63H5v-3.63zm26.36 0H35v3.63h-3.64v-3.63z"/>
        </symbol>
        <symbol id="user-circle">
            <title>Account</title>
            <path fill-opacity=".7" fill-rule="evenodd" d="M25 12.5C25 5.6 19.4 0 12.5 0S0 5.6 0 12.5 5.6 25 12.5 25 25 19.4 25 12.5zm-23.7 0c0-6.16 5.04-11.2 11.2-11.2 6.16 0 11.2 5.02 11.2 11.2 0 2.95-1.15 5.64-3 7.62-1.75-1.2-3.3-2-4-2.37v-1.4c.16-.35.3-.74.42-1.2.5-.2.86-.77 1.2-1.95.3-1.07.3-1.82-.08-2.27.37-2.06.2-3.57-.52-4.5-.37-.5-.8-.7-1.1-.82-.2-.28-.62-.77-1.33-1.16-.9-.53-1.9-.73-2.98-.66-.42.03-.8.1-1.23.24h-.04c-.44.16-.86.36-1.27.65-.48.3-.93.65-1.3 1.07-.72.76-1.22 1.62-1.43 2.53-.2.76-.2 1.5-.05 2.22-.05.04-.13.1-.18.17-.37.45-.42 1.18-.1 2.27.2.73.46 1.47.93 1.83.13.68.37 1.3.65 1.85v1.13c-.7.36-2.24 1.17-4 2.37-1.87-1.98-3.02-4.67-3.02-7.62zm7.83 6.3c.3-.14.47-.45.47-.77v-1.56c0-.1-.02-.24-.07-.34-.32-.52-.53-1.18-.66-1.9-.05-.27-.23-.48-.47-.53-.05-.08-.23-.34-.44-1.1-.16-.57-.16-.86-.16-1 .2 0 .37-.12.5-.27.13-.2.18-.42.1-.63-.23-.68-.28-1.38-.08-2.1.16-.72.53-1.35 1.13-1.95.3-.33.65-.62 1.04-.86 0 0 .02 0 .02-.03.3-.24.65-.4 1-.5.3-.1.6-.16.88-.16.83-.06 1.6.1 2.24.48.7.4 1.02.92 1.02.92.1.2.3.34.52.34 0 0 .26.05.52.36.3.4.7 1.4.2 3.86-.04.3.1.58.35.7.03.1.03.4-.16 1.08-.16.6-.32.9-.4 1.02-.1 0-.2 0-.3.05-.22.1-.35.27-.4.5-.1.58-.26 1.1-.47 1.54-.06.08-.06.2-.06.3v1.8c0 .3.2.62.47.75.47.22 2.04 1 3.87 2.23-2.03 1.67-4.56 2.67-7.3 2.67s-5.27-1-7.23-2.64c1.85-1.25 3.4-2.04 3.86-2.27z"/>
        </symbol>
        <sybol id="user-circle-o">
            <title>Account</title>
            <path fill="#00ACDD" fill-rule="evenodd" d="M25 12.5C25 5.6 19.4 0 12.5 0S0 5.6 0 12.5 5.6 25 12.5 25 25 19.4 25 12.5zm-23.7 0c0-6.16 5.04-11.2 11.2-11.2 6.16 0 11.2 5.02 11.2 11.2 0 2.95-1.15 5.64-3 7.62-1.75-1.2-3.3-2-4-2.37v-1.4c.16-.35.3-.74.42-1.2.5-.2.86-.77 1.2-1.95.3-1.07.3-1.82-.08-2.27.37-2.06.2-3.57-.52-4.5-.37-.5-.8-.7-1.1-.82-.2-.28-.62-.77-1.33-1.16-.9-.53-1.9-.73-2.98-.66-.42.03-.8.1-1.23.24h-.04c-.44.16-.86.36-1.27.65-.48.3-.93.65-1.3 1.07-.72.76-1.22 1.62-1.43 2.53-.2.76-.2 1.5-.05 2.22-.05.04-.13.1-.18.17-.37.45-.42 1.18-.1 2.27.2.73.46 1.47.93 1.83.13.68.37 1.3.65 1.85v1.13c-.7.36-2.24 1.17-4 2.37-1.87-1.98-3.02-4.67-3.02-7.62zm7.83 6.3c.3-.14.47-.45.47-.77v-1.56c0-.1-.02-.24-.07-.34-.32-.52-.53-1.18-.66-1.9-.05-.27-.23-.48-.47-.53-.05-.08-.23-.34-.44-1.1-.16-.57-.16-.86-.16-1 .2 0 .37-.12.5-.27.13-.2.18-.42.1-.63-.23-.68-.28-1.38-.08-2.1.16-.72.53-1.35 1.13-1.95.3-.33.65-.62 1.04-.86 0 0 .02 0 .02-.03.3-.24.65-.4 1-.5.3-.1.6-.16.88-.16.83-.06 1.6.1 2.24.48.7.4 1.02.92 1.02.92.1.2.3.34.52.34 0 0 .26.05.52.36.3.4.7 1.4.2 3.86-.04.3.1.58.35.7.03.1.03.4-.16 1.08-.16.6-.32.9-.4 1.02-.1 0-.2 0-.3.05-.22.1-.35.27-.4.5-.1.58-.26 1.1-.47 1.54-.06.08-.06.2-.06.3v1.8c0 .3.2.62.47.75.47.22 2.04 1 3.87 2.23-2.03 1.67-4.56 2.67-7.3 2.67s-5.27-1-7.23-2.64c1.85-1.25 3.4-2.04 3.86-2.27zm0 0c.3-.14.47-.45.47-.77v-1.56c0-.1-.02-.24-.07-.34-.32-.52-.53-1.18-.66-1.9-.05-.27-.23-.48-.47-.53-.05-.08-.23-.34-.44-1.1-.16-.57-.16-.86-.16-1 .2 0 .37-.12.5-.27.13-.2.18-.42.1-.63-.23-.68-.28-1.38-.08-2.1.16-.72.53-1.35 1.13-1.95.3-.33.65-.62 1.04-.86 0 0 .02 0 .02-.03.3-.24.65-.4 1-.5.3-.1.6-.16.88-.16.83-.06 1.6.1 2.24.48.7.4 1.02.92 1.02.92.1.2.3.34.52.34 0 0 .26.05.52.36.3.4.7 1.4.2 3.86-.04.3.1.58.35.7.03.1.03.4-.16 1.08-.16.6-.32.9-.4 1.02-.1 0-.2 0-.3.05-.22.1-.35.27-.4.5-.1.58-.26 1.1-.47 1.54-.06.08-.06.2-.06.3v1.8c0 .3.2.62.47.75.47.22 2.04 1 3.87 2.23-2.03 1.67-4.56 2.67-7.3 2.67s-5.27-1-7.23-2.64c1.85-1.25 3.4-2.04 3.86-2.27z"/>
        </sybol>
    </defs>
</svg>