<?xml version="1.0" encoding="utf-8"?>
<!-- Generator: Adobe Illustrator 16.0.0, SVG Export Plug-In . SVG Version: 6.00 Build 0)  -->
<!DOCTYPE svg PUBLIC "-//W3C//DTD SVG 1.1//EN" "http://www.w3.org/Graphics/SVG/1.1/DTD/svg11.dtd">
<svg version="1.1" id="Layer_1" xmlns="http://www.w3.org/2000/svg" xmlns:xlink="http://www.w3.org/1999/xlink" x="0px" y="0px"
	 width="792px" height="163px" viewBox="22 10 792 160" enable-background="new 0 0 792 163" xml:space="preserve">
<g>
	<g>
		<defs>
			<path id="SVGID_1_" d="M164.572,47.683c0-1.114,0.869-1.998,1.971-1.998h2.525c1.09,0,1.966,0.884,1.966,1.998v51.796
				c0,19.408-12.5,34.382-35.856,34.382S99.32,118.887,99.32,99.479V47.683c0-1.114,0.879-1.998,1.973-1.998h2.521
				c1.1,0,1.976,0.884,1.976,1.998v51.576c0,16.305,10.304,28.173,29.39,28.173c19.191,0,29.394-11.868,29.394-28.173V47.683z"/>
		</defs>
		<use xlink:href="#SVGID_1_"  overflow="visible" fill-rule="evenodd" clip-rule="evenodd" fill="#FFFFFF"/>
		<clipPath id="SVGID_2_">
			<use xlink:href="#SVGID_1_"  overflow="visible"/>
		</clipPath>
		<g clip-path="url(#SVGID_2_)">
			<defs>
				<rect id="SVGID_3_" x="-127.232" y="-75.014" width="3376.57" height="11564.084"/>
			</defs>
			<use xlink:href="#SVGID_3_"  overflow="visible" fill="#FFFFFF"/>
			<clipPath id="SVGID_4_">
				<use xlink:href="#SVGID_3_"  overflow="visible"/>
			</clipPath>
			<rect x="82.833" y="29.198" clip-path="url(#SVGID_4_)" fill="#FFFFFF" width="104.689" height="121.15"/>
		</g>
	</g>
	<g>
		<defs>
			<path id="SVGID_5_" d="M262.301,98.509V47.683c0-1.104-0.818-1.998-1.856-1.998h-2.465c-1.032,0-1.856,0.894-1.856,1.998v50.827
				h-0.027v25.037c0,2.79-1.725,4.404-3.324,5.002c-1.607,0.585-3.883,0.427-5.468-1.79l-15.911-25.862l-28.73-50.492
				c-2.174-3.047-5.38-4.719-8.752-4.719c-1.213,0-2.446,0.211-3.658,0.662c-4.601,1.679-7.558,6.137-7.558,11.361v25.036h0.028
				v50.823c0,1.118,0.825,2.003,1.854,2.003h2.47c1.022,0,1.859-0.885,1.859-2.003V82.744h0.03V57.708
				c0-2.792,1.713-4.409,3.317-5.003c1.605-0.577,3.889-0.428,5.462,1.791l28.729,50.49l15.915,25.865
				c2.17,3.047,5.381,4.721,8.761,4.721c1.206,0,2.435-0.216,3.652-0.657c4.591-1.687,7.558-6.147,7.558-11.367V98.509H262.301z"/>
		</defs>
		<use xlink:href="#SVGID_5_"  overflow="visible" fill-rule="evenodd" clip-rule="evenodd" fill="#FFFFFF"/>
		<clipPath id="SVGID_6_">
			<use xlink:href="#SVGID_5_"  overflow="visible"/>
		</clipPath>
		<g clip-path="url(#SVGID_6_)">
			<defs>
				<rect id="SVGID_7_" x="-127.232" y="-75.014" width="3376.57" height="11564.084"/>
			</defs>
			<use xlink:href="#SVGID_7_"  overflow="visible" fill="#FFFFFF"/>
			<clipPath id="SVGID_8_">
				<use xlink:href="#SVGID_7_"  overflow="visible"/>
			</clipPath>
			<rect x="166.209" y="29.195" clip-path="url(#SVGID_8_)" fill="#FFFFFF" width="112.609" height="122.862"/>
		</g>
	</g>
	<g>
		<defs>
			<path id="SVGID_9_" d="M350.594,110.347c0.656-0.879,1.862-1.217,2.847-0.664l2.305,1.336c0.988,0.444,1.208,1.771,0.654,2.548
				c-7.896,12.196-21.603,20.292-37.172,20.292c-24.679,0-44.633-20.072-44.633-44.918c0-24.734,19.955-44.919,44.633-44.919
				c15.457,0,29.173,8.094,37.069,20.289c0.545,0.785,0.326,2.117-0.661,2.56l-2.196,1.219c-0.985,0.559-2.191,0.333-2.847-0.661
				c-6.914-10.206-18.321-16.868-31.366-16.868c-20.946,0-38.055,17.309-38.055,38.381c0,21.187,17.109,38.377,38.055,38.377
				C332.273,127.32,343.789,120.661,350.594,110.347"/>
		</defs>
		<use xlink:href="#SVGID_9_"  overflow="visible" fill-rule="evenodd" clip-rule="evenodd" fill="#FFFFFF"/>
		<clipPath id="SVGID_10_">
			<use xlink:href="#SVGID_9_"  overflow="visible"/>
		</clipPath>
		<g clip-path="url(#SVGID_10_)">
			<defs>
				<rect id="SVGID_11_" x="-127.232" y="-75.014" width="3376.57" height="11564.084"/>
			</defs>
			<use xlink:href="#SVGID_11_"  overflow="visible" fill="#FFFFFF"/>
			<clipPath id="SVGID_12_">
				<use xlink:href="#SVGID_11_"  overflow="visible"/>
			</clipPath>
			<rect x="258.108" y="27.537" clip-path="url(#SVGID_12_)" fill="#FFFFFF" width="115.075" height="122.811"/>
		</g>
	</g>
	<g>
		<defs>
			<path id="SVGID_13_" d="M436.517,47.683c0-1.114,0.877-1.998,1.971-1.998h2.52c1.102,0,1.972,0.884,1.972,1.998v82.52
				c0,1.114-0.87,1.996-1.972,1.996h-2.52c-1.094,0-1.971-0.882-1.971-1.996V94.379c0-0.888-0.657-1.546-1.54-1.546h-55.706
				c-0.876,0-1.53,0.658-1.53,1.546v35.824c0,1.114-0.884,1.996-1.982,1.996h-2.521c-1.094,0-1.974-0.882-1.974-1.996v-82.52
				c0-1.114,0.88-1.998,1.974-1.998h2.521c1.099,0,1.982,0.884,1.982,1.998v37.376c0,0.884,0.653,1.56,1.53,1.56h55.706
				c0.883,0,1.54-0.676,1.54-1.56V47.683z"/>
		</defs>
		<use xlink:href="#SVGID_13_"  overflow="visible" fill-rule="evenodd" clip-rule="evenodd" fill="#FFFFFF"/>
		<clipPath id="SVGID_14_">
			<use xlink:href="#SVGID_13_"  overflow="visible"/>
		</clipPath>
		<g clip-path="url(#SVGID_14_)">
			<defs>
				<rect id="SVGID_15_" x="-127.232" y="-75.014" width="3376.57" height="11564.084"/>
			</defs>
			<use xlink:href="#SVGID_15_"  overflow="visible" fill="#FFFFFF"/>
			<clipPath id="SVGID_16_">
				<use xlink:href="#SVGID_15_"  overflow="visible"/>
			</clipPath>
			<rect x="354.777" y="29.195" clip-path="url(#SVGID_16_)" fill="#FFFFFF" width="104.688" height="119.49"/>
		</g>
	</g>
	<g>
		<defs>
			<path id="SVGID_17_" d="M50.436,132.199c-18.983,0-22-9.959-22-22.251V47.683c0-1.101,0.88-1.995,1.978-1.995h2.527
				c1.082,0,1.964,0.894,1.964,1.995v55.829c0,13.474,0.936,22.253,16.619,22.253h40.03c1.097,0,1.98,0.895,1.98,2v2.441
				c0,1.104-0.884,1.993-1.98,1.993H50.436z"/>
		</defs>
		<use xlink:href="#SVGID_17_"  overflow="visible" fill-rule="evenodd" clip-rule="evenodd" fill="#FFFFFF"/>
		<clipPath id="SVGID_18_">
			<use xlink:href="#SVGID_17_"  overflow="visible"/>
		</clipPath>
		<g clip-path="url(#SVGID_18_)">
			<defs>
				<rect id="SVGID_19_" x="-127.232" y="-75.014" width="3376.57" height="11564.084"/>
			</defs>
			<use xlink:href="#SVGID_19_"  overflow="visible" fill="#FFFFFF"/>
			<clipPath id="SVGID_20_">
				<use xlink:href="#SVGID_19_"  overflow="visible"/>
			</clipPath>
			<rect x="11.948" y="29.201" clip-path="url(#SVGID_20_)" fill="#FFFFFF" width="98.073" height="119.485"/>
		</g>
	</g>
	<g>
		<defs>
			<path id="SVGID_21_" d="M540.656,67.074c0-12.288,6.825-22.257,22.004-22.257h15.72c18.536,0,29.173,12.871,29.173,27.844
				c0,11.755-6.473,22.073-18.096,26.29c-0.659,0.222-0.985,1.11-0.552,1.773l20.511,28.949c0.438,0.775,0,1.662-0.877,1.662h-3.956
				c-1.204,0-2.403-0.667-3.059-1.662l-19.743-28.062c-0.553-0.554-1.098-0.888-1.979-0.888h-1.423h-29.722
				c-0.841,0-1.531,0.695-1.531,1.554v27.069c0,1.095-0.881,1.988-1.976,1.988h-2.523c-1.082,0-1.972-0.894-1.972-1.988V67.074z
				 M578.16,51.034h-14.662c-13.537,0-16.371,9.964-16.371,22.254v19.674c0,0.858,0.69,1.551,1.531,1.551h29.502
				c14.921,0,23.03-10.199,23.03-21.736C601.19,61.348,593.081,51.034,578.16,51.034z"/>
		</defs>
		<use xlink:href="#SVGID_21_"  overflow="visible" fill-rule="evenodd" clip-rule="evenodd" fill="#FFFFFF"/>
		<clipPath id="SVGID_22_">
			<use xlink:href="#SVGID_21_"  overflow="visible"/>
		</clipPath>
		<g clip-path="url(#SVGID_22_)">
			<defs>
				<rect id="SVGID_23_" x="-127.232" y="-75.014" width="3376.57" height="11564.084"/>
			</defs>
			<use xlink:href="#SVGID_23_"  overflow="visible" fill="#FFFFFF"/>
			<clipPath id="SVGID_24_">
				<use xlink:href="#SVGID_23_"  overflow="visible"/>
			</clipPath>
			<rect x="524.169" y="28.333" clip-path="url(#SVGID_24_)" fill="#FFFFFF" width="101.905" height="119.49"/>
		</g>
	</g>
	<g>
		<defs>
			<path id="SVGID_25_" d="M464.943,67.074c0-12.288,6.816-22.257,22.004-22.257h15.721c18.534,0,29.174,12.871,29.174,27.844
				c0,11.755-6.475,22.073-18.096,26.29c-0.661,0.222-5.588,1.773-9.657,1.773h-1.421h-29.723c-0.849,0-1.529,0.695-1.529,1.554
				v27.069c0,1.095-0.895,1.988-1.976,1.988h-2.526c-1.095,0-1.971-0.894-1.971-1.988V67.074z M502.446,51.034h-14.669
				c-13.532,0-16.361,9.964-16.361,22.254v19.674c0,0.858,0.681,1.551,1.529,1.551h29.501c14.916,0,23.023-10.199,23.023-21.736
				C525.47,61.348,517.362,51.034,502.446,51.034z"/>
		</defs>
		<use xlink:href="#SVGID_25_"  overflow="visible" fill-rule="evenodd" clip-rule="evenodd" fill="#FFFFFF"/>
		<clipPath id="SVGID_26_">
			<use xlink:href="#SVGID_25_"  overflow="visible"/>
		</clipPath>
		<g clip-path="url(#SVGID_26_)">
			<defs>
				<rect id="SVGID_27_" x="-127.232" y="-75.014" width="3376.57" height="11564.084"/>
			</defs>
			<use xlink:href="#SVGID_27_"  overflow="visible" fill="#FFFFFF"/>
			<clipPath id="SVGID_28_">
				<use xlink:href="#SVGID_27_"  overflow="visible"/>
			</clipPath>
			<rect x="448.456" y="28.333" clip-path="url(#SVGID_28_)" fill="#FFFFFF" width="99.871" height="119.49"/>
		</g>
	</g>
	<g>
		<defs>
			<path id="SVGID_29_" d="M612.377,90.439c0-24.737,19.962-44.921,44.634-44.921c24.564,0,44.523,20.184,44.523,44.921
				c0,24.847-19.959,44.918-44.523,44.918C632.339,135.358,612.377,115.287,612.377,90.439 M618.955,90.439
				c0,21.188,17.104,38.38,38.056,38.38c20.827,0,37.94-17.192,37.94-38.38c0-21.069-17.113-38.375-37.94-38.375
				C636.06,52.065,618.955,69.371,618.955,90.439"/>
		</defs>
		<use xlink:href="#SVGID_29_"  overflow="visible" fill-rule="evenodd" clip-rule="evenodd" fill="#FFFFFF"/>
		<clipPath id="SVGID_30_">
			<use xlink:href="#SVGID_29_"  overflow="visible"/>
		</clipPath>
		<g clip-path="url(#SVGID_30_)">
			<defs>
				<rect id="SVGID_31_" x="-127.232" y="-75.014" width="3376.57" height="11564.084"/>
			</defs>
			<use xlink:href="#SVGID_31_"  overflow="visible" fill="#FFFFFF"/>
			<clipPath id="SVGID_32_">
				<use xlink:href="#SVGID_31_"  overflow="visible"/>
			</clipPath>
			<rect x="595.89" y="29.035" clip-path="url(#SVGID_32_)" fill="#FFFFFF" width="122.13" height="122.81"/>
		</g>
	</g>
	<g>
		<defs>
			<path id="SVGID_33_" d="M694.977,36.229c0-6.244,5.403-11.322,12.043-11.322c6.647,0,12.05,5.078,12.05,11.322
				c0,6.244-5.402,11.319-12.05,11.319C700.38,47.547,694.977,42.473,694.977,36.229z M696.566,36.229
				c0,5.452,4.657,9.834,10.453,9.834s10.461-4.383,10.461-9.834c0-5.448-4.665-9.828-10.461-9.828S696.566,30.78,696.566,36.229z
				 M711.875,40.798c0.212,0.28-0.045,0.654-0.393,0.654h-0.097c-0.495,0-0.933-0.239-1.196-0.654l-1.675-2.655
				c-0.252-0.327-0.651-0.563-1.051-0.563h-2.57c-0.397,0-0.696,0.279-0.696,0.655v2.563c0,0.368-0.302,0.654-0.694,0.654H703.4
				c-0.394,0-0.696-0.286-0.696-0.654v-9.458c0-0.467,0.405-0.847,0.89-0.847h4.468c2.525,0,3.969,1.639,3.969,3.545
				c0,1.216-0.594,2.38-1.681,2.984c-0.406,0.182-0.504,0.558-0.258,0.888L711.875,40.798z M708.011,31.897h-3.117
				c-0.397,0-0.696,0.273-0.696,0.651v2.979c0,0.37,0.299,0.656,0.696,0.656h3.117c1.585,0,2.531-1.068,2.531-2.146
				C710.542,32.973,709.596,31.897,708.011,31.897z"/>
		</defs>
		<use xlink:href="#SVGID_33_"  overflow="visible" fill-rule="evenodd" clip-rule="evenodd" fill="#FFFFFF"/>
		<clipPath id="SVGID_34_">
			<use xlink:href="#SVGID_33_"  overflow="visible"/>
		</clipPath>
		<g clip-path="url(#SVGID_34_)">
			<defs>
				<rect id="SVGID_35_" x="-127.232" y="-75.014" width="3376.57" height="11564.084"/>
			</defs>
			<use xlink:href="#SVGID_35_"  overflow="visible" fill="#FFFFFF"/>
			<clipPath id="SVGID_36_">
				<use xlink:href="#SVGID_35_"  overflow="visible"/>
			</clipPath>
			<rect x="678.489" y="8.419" clip-path="url(#SVGID_36_)" fill="#FFFFFF" width="57.067" height="55.615"/>
		</g>
	</g>
	<g>
		<defs>
			<path id="SVGID_37_" d="M735.323,68.018c0-1.237,0.987-2.235,2.204-2.235h7.903c1.216,0,2.202,0.998,2.202,2.235v12.154
				c0,1.718,1.371,3.119,3.07,3.119h11.986c1.211,0,2.196,1,2.196,2.237v8.009c0,1.233-0.985,2.235-2.196,2.235h-11.986
				c-1.699,0-3.07,1.397-3.07,3.12v11.929c0,1.237-0.986,2.236-2.202,2.236h-7.903c-1.217,0-2.204-1-2.204-2.236V98.899
				c0-1.729-1.371-3.127-3.078-3.127h-11.972c-1.21,0-2.209-1.002-2.209-2.235v-8.009c0-1.237,0.999-2.237,2.209-2.237h11.979
				c1.699,0,3.07-1.401,3.07-3.119V68.018z"/>
		</defs>
		<use xlink:href="#SVGID_37_"  overflow="visible" fill-rule="evenodd" clip-rule="evenodd" fill="#FFFFFF"/>
		<clipPath id="SVGID_38_">
			<use xlink:href="#SVGID_37_"  overflow="visible"/>
		</clipPath>
		<g clip-path="url(#SVGID_38_)">
			<defs>
				<rect id="SVGID_39_" x="-127.232" y="-75.014" width="3376.57" height="11564.084"/>
			</defs>
			<use xlink:href="#SVGID_39_"  overflow="visible" fill="#FFFFFF"/>
			<clipPath id="SVGID_40_">
				<use xlink:href="#SVGID_39_"  overflow="visible"/>
			</clipPath>
			<rect x="701.577" y="49.293" clip-path="url(#SVGID_40_)" fill="#FFFFFF" width="79.796" height="80.252"/>
		</g>
	</g>
</g>
</svg>
